<svg xmlns="http://www.w3.org/2000/svg" xmlns:xlink="http://www.w3.org/1999/xlink" width="1080" zoomAndPan="magnify" viewBox="0 0 810 1439.999935" height="1920" preserveAspectRatio="xMidYMid meet" version="1.0"><defs><g/><clipPath id="daff1670ca"><path d="M 0 5.066406 L 784.800781 5.066406 L 784.800781 202.941406 L 0 202.941406 Z M 0 5.066406 " clip-rule="nonzero"/></clipPath><clipPath id="8b9ec76104"><path d="M 249.136719 34.910156 L 686.273438 34.910156 L 686.273438 162.933594 L 249.136719 162.933594 Z M 249.136719 34.910156 " clip-rule="nonzero"/></clipPath><clipPath id="f7ba0928f0"><path d="M 0.136719 0.910156 L 437.273438 0.910156 L 437.273438 128.933594 L 0.136719 128.933594 Z M 0.136719 0.910156 " clip-rule="nonzero"/></clipPath><clipPath id="5db85ec3ef"><rect x="0" width="438" y="0" height="129"/></clipPath><clipPath id="6c881ecae5"><path d="M 74.253906 25.820312 L 511.390625 25.820312 L 511.390625 158.644531 L 74.253906 158.644531 Z M 74.253906 25.820312 " clip-rule="nonzero"/></clipPath><clipPath id="13ae2178f5"><path d="M 0.253906 0.820312 L 437.390625 0.820312 L 437.390625 133.644531 L 0.253906 133.644531 Z M 0.253906 0.820312 " clip-rule="nonzero"/></clipPath><clipPath id="10514bcdc7"><rect x="0" width="438" y="0" height="134"/></clipPath><clipPath id="e6e9c79162"><rect x="0" width="298" y="0" height="124"/></clipPath><clipPath id="a26bb64ac9"><rect x="0" width="785" y="0" height="206"/></clipPath></defs><g transform="matrix(1, 0, 0, 1, 18, 536)"><g clip-path="url(#a26bb64ac9)"><g clip-path="url(#daff1670ca)"><path fill="#6d4d30" d="M 0.0976562 95.851562 C 0.0976562 115.113281 2.503906 127.640625 11.171875 143.289062 C 30.4375 178.207031 75.707031 186.632812 115.683594 192.175781 C 140.246094 195.789062 161.4375 197.230469 185.519531 198.433594 C 210.082031 199.636719 234.402344 201.804688 259.449219 201.804688 L 341.324219 202.527344 C 361.070312 202.527344 378.648438 201.804688 397.433594 201.804688 L 452.816406 200.117188 C 462.207031 199.636719 472.320312 200.597656 480.511719 199.636719 L 631.015625 193.378906 L 670.265625 189.523438 C 712.648438 183.742188 765.871094 169.058594 781.042969 128.597656 C 789.953125 105.242188 781.765625 83.085938 768.277344 64.542969 C 762.738281 56.597656 753.832031 49.613281 745.640625 44.796875 C 742.507812 42.867188 739.378906 41.425781 736.003906 39.738281 C 705.179688 24.328125 657.257812 15.898438 621.863281 11.082031 C 612.953125 9.636719 591.761719 7.46875 583.089844 7.46875 C 577.070312 7.46875 574.902344 6.503906 569.363281 6.742188 C 552.746094 6.742188 530.589844 5.054688 513.015625 5.054688 L 403.203125 8.1875 C 397.664062 8.1875 395.742188 9.148438 385.382812 9.148438 L 322.78125 12.289062 C 319.890625 12.527344 316.277344 12.046875 313.144531 12.289062 C 309.292969 12.289062 308.8125 13.011719 304.476562 13.011719 L 259.207031 15.179688 C 248.132812 16.867188 233.925781 14.9375 222.847656 16.621094 L 112.074219 19.03125 C 107.496094 19.511719 99.550781 19.753906 94.738281 20.234375 C 69.933594 22.886719 37.664062 25.292969 18.15625 38.296875 C 9.488281 44.078125 6.597656 50.820312 4.429688 62.136719 C 2.261719 72.972656 0.0976562 83.085938 0.0976562 95.851562 Z M 0.0976562 95.851562 " fill-opacity="1" fill-rule="evenodd"/></g><path fill="#913b92" d="M 17.917969 96.332031 C 17.917969 115.59375 19.121094 125.707031 30.199219 142.566406 C 36.21875 151.476562 47.292969 159.183594 57.167969 163.757812 C 82.453125 175.074219 108.460938 177.722656 136.394531 181.578125 L 192.023438 186.152344 C 195.875 186.394531 200.210938 185.914062 204.0625 186.394531 C 210.324219 186.875 220.195312 187.117188 226.703125 187.835938 C 239.226562 188.800781 260.894531 188.558594 273.898438 188.558594 C 282.570312 188.558594 288.347656 189.285156 297.257812 189.285156 L 411.160156 188.558594 C 417.421875 188.558594 421.035156 187.835938 426.332031 187.835938 C 435.242188 187.835938 450.171875 188.558594 458.117188 187.355469 C 466.542969 186.152344 480.511719 186.878906 489.183594 186.152344 C 493.761719 185.914062 500.257812 186.152344 505.078125 186.152344 L 536.378906 185.429688 C 542.160156 185.429688 545.289062 184.46875 551.550781 184.46875 C 572.980469 184.707031 593.933594 182.539062 613.441406 182.0625 L 671.714844 176.28125 C 693.390625 172.667969 714.09375 167.371094 732.878906 157.015625 C 734.804688 155.8125 736.25 155.328125 737.9375 154.125 C 739.625 153.164062 741.066406 151.960938 742.515625 150.757812 C 744.921875 148.828125 749.257812 145.460938 751.183594 143.292969 C 752.628906 141.367188 753.351562 140.402344 754.554688 138.714844 C 763.464844 127.640625 767.316406 117.042969 765.632812 105 C 764.667969 113.1875 760.8125 120.894531 754.554688 128.601562 C 753.351562 130.289062 752.628906 131.492188 751.183594 133.179688 C 749.257812 135.347656 744.925781 138.960938 742.515625 140.644531 C 741.070312 141.847656 739.625 143.050781 737.9375 144.257812 C 736.25 145.460938 734.804688 145.945312 732.878906 146.90625 C 714.09375 157.503906 693.390625 162.5625 671.714844 166.171875 L 613.441406 172.191406 C 593.9375 172.671875 572.984375 174.597656 551.550781 174.597656 C 545.289062 174.597656 542.160156 175.320312 536.378906 175.320312 L 505.078125 176.042969 C 500.257812 176.042969 493.761719 175.804688 489.183594 176.285156 C 480.511719 176.765625 466.542969 176.042969 458.117188 177.488281 C 450.171875 178.691406 435.242188 177.726562 426.332031 177.726562 C 421.035156 177.726562 417.421875 178.453125 411.160156 178.453125 L 297.257812 179.414062 C 288.347656 179.414062 282.566406 178.453125 273.898438 178.453125 C 260.894531 178.453125 239.222656 178.691406 226.703125 177.726562 C 220.203125 177.25 210.328125 177.003906 204.0625 176.285156 C 200.210938 175.804688 195.875 176.285156 192.023438 176.042969 L 136.394531 171.46875 C 108.460938 167.855469 82.453125 164.96875 57.167969 153.648438 C 47.292969 149.3125 36.21875 141.605469 30.199219 132.457031 C 20.5625 117.765625 18.398438 108.136719 17.917969 92.722656 C 17.917969 93.925781 17.917969 95.128906 17.917969 96.332031 Z M 17.917969 96.332031 " fill-opacity="1" fill-rule="evenodd"/><path fill="#913b92" d="M 386.355469 56.597656 C 386.355469 70.324219 388.042969 88.144531 388.042969 96.808594 C 387.804688 102.589844 392.621094 133.171875 396.714844 138.710938 C 403.457031 147.863281 416.460938 141.601562 414.535156 130.285156 C 414.054688 126.433594 413.089844 124.265625 412.367188 120.410156 C 411.644531 117.042969 410.441406 113.667969 410.441406 110.539062 C 417.902344 109.8125 425.851562 108.132812 433.796875 108.132812 C 433.796875 143.050781 456.191406 132.453125 456.191406 122.578125 C 456.191406 113.429688 448.246094 77.546875 448.246094 58.28125 C 448.003906 39.019531 428.015625 43.351562 428.015625 53.464844 L 428.980469 79.714844 C 429.21875 82.363281 429.703125 83.328125 429.703125 87.175781 C 423.203125 87.65625 414.535156 89.582031 408.03125 89.582031 C 408.03125 85.730469 407.550781 50.8125 406.34375 48.644531 C 402.011719 39.984375 386.355469 40.222656 386.355469 56.597656 Z M 655.339844 152.199219 C 655.339844 167.609375 678.457031 164.722656 678.457031 150.511719 C 678.457031 136.300781 655.339844 139.679688 655.339844 152.199219 Z M 202.617188 71.046875 C 202.617188 74.417969 205.023438 78.753906 206.46875 80.679688 C 213.691406 91.035156 227.898438 83.332031 225.253906 73.21875 C 221.398438 56.597656 202.617188 59.007812 202.617188 71.046875 Z M 204.0625 100.910156 C 204.0625 112.226562 205.992188 115.113281 208.878906 125.710938 C 210.566406 132.9375 210.808594 140.882812 220.195312 140.882812 C 234.644531 140.882812 229.585938 124.988281 228.382812 119.933594 C 225.015625 106.6875 225.492188 91.996094 213.691406 91.996094 C 208.636719 91.996094 204.0625 95.605469 204.0625 100.910156 Z M 676.046875 118.484375 C 676.046875 105.960938 674.359375 89.585938 672.917969 77.308594 C 671.953125 67.917969 677.25 46.964844 662.5625 46.964844 C 651.96875 46.964844 651.488281 58.765625 651.96875 66.953125 C 652.929688 76.34375 652.691406 87.179688 653.652344 96.574219 C 654.378906 103.320312 655.339844 118.730469 658.230469 122.582031 C 664.007812 130.285156 676.046875 126.675781 676.046875 118.484375 Z M 238.738281 108.132812 C 238.738281 123.785156 250.054688 140.160156 265.949219 140.160156 C 273.410156 140.160156 285.453125 141.121094 290.511719 135.824219 C 296.054688 130.53125 293.164062 119.933594 284.972656 118.488281 L 265.949219 119.210938 C 262.578125 119.210938 259.449219 113.917969 259.449219 108.136719 C 259.449219 95.613281 273.894531 104.523438 273.894531 87.910156 C 273.894531 83.332031 268.839844 79.722656 264.984375 79.238281 C 253.1875 78.269531 238.738281 92.722656 238.738281 108.132812 Z M 167.941406 59.007812 C 167.941406 76.105469 177.332031 82.125 170.109375 115.839844 C 168.421875 124.265625 159.996094 144.253906 176.851562 144.253906 C 187.929688 144.253906 190.097656 121.859375 192.261719 109.820312 C 194.914062 93.445312 193.226562 84.050781 190.097656 68.15625 C 188.410156 59.96875 187.929688 50.335938 178.535156 50.335938 C 173 50.335938 167.941406 53.949219 167.941406 59.007812 Z M 548.421875 122.578125 C 548.421875 117.519531 546.976562 112.703125 546.253906 108.609375 C 545.289062 103.792969 544.566406 100.183594 544.566406 94.402344 C 546.972656 93.679688 552.03125 88.863281 561.183594 86.21875 C 564.316406 85.253906 567.445312 84.773438 570.09375 83.085938 C 579.246094 77.546875 578.523438 52.503906 540.472656 72.734375 C 537.34375 59.25 524.339844 61.171875 520.96875 69.121094 C 518.320312 74.902344 523.859375 101.386719 525.0625 107.40625 C 526.265625 114.152344 527.714844 126.910156 531.808594 130.285156 C 538.785156 135.582031 548.421875 130.523438 548.421875 122.578125 Z M 598.269531 88.867188 C 598.507812 84.289062 600.675781 82.125 602.363281 79.234375 C 606.457031 79.957031 609.105469 81.640625 611.035156 84.773438 C 608.144531 86.703125 602.84375 88.382812 598.269531 88.867188 Z M 575.871094 95.128906 C 575.871094 105.480469 576.59375 115.839844 583.578125 123.542969 C 595.378906 136.546875 606.9375 137.507812 621.867188 130.042969 C 631.738281 124.984375 632.21875 116.796875 627.886719 112.21875 C 619.699219 103.792969 613.195312 113.664062 605.492188 113.664062 C 602.121094 113.664062 600.675781 112.21875 599.953125 109.570312 C 607.175781 109.089844 615.605469 105.957031 620.664062 103.308594 C 635.355469 95.601562 635.59375 77.300781 623.070312 67.1875 C 597.785156 46.242188 575.871094 68.640625 575.871094 95.128906 Z M 481.953125 80.679688 C 487.976562 80.679688 489.417969 87.90625 485.808594 87.90625 C 481.714844 87.90625 480.511719 86.460938 476.175781 86.460938 C 477.382812 84.050781 478.585938 80.679688 481.953125 80.679688 Z M 455.46875 89.585938 C 455.46875 124.984375 494.957031 150.511719 517.835938 126.191406 C 524.820312 118.96875 519.039062 108.855469 510.851562 108.855469 C 504.59375 108.855469 500.980469 115.355469 497.847656 115.355469 C 493.03125 115.355469 486.289062 111.5 484.367188 108.855469 C 497.128906 108.855469 508.445312 99.703125 508.445312 88.867188 C 508.445312 78.515625 507.722656 74.660156 500.5 67.675781 C 492.074219 59.25 480.511719 57.5625 469.675781 63.101562 C 461.25 67.433594 455.46875 78.992188 455.46875 89.585938 Z M 286.902344 72.011719 C 286.902344 80.921875 296.054688 118.96875 298.464844 131.007812 C 300.390625 141.363281 302.558594 144.976562 310.988281 144.976562 C 320.378906 144.976562 320.378906 133.898438 318.933594 127.394531 L 335.550781 139.675781 C 339.167969 141.601562 342.296875 142.324219 346.390625 140.398438 C 349.28125 138.957031 351.929688 135.34375 351.929688 131.25 C 351.929688 124.027344 337 114.875 330.738281 110.058594 C 327.609375 107.652344 324.960938 105.964844 322.070312 104.039062 C 325.4375 98.980469 347.113281 85.492188 347.113281 77.550781 C 347.113281 68.402344 336.515625 63.34375 329.054688 70.089844 L 310.027344 86.460938 C 307.621094 75.382812 309.066406 62.382812 297.265625 62.382812 C 290.03125 62.375 286.902344 68.15625 286.902344 72.011719 Z M 90.160156 91.996094 C 90.160156 110.296875 91.601562 119.207031 106.054688 132.210938 C 115.925781 141.121094 130.375 142.566406 143.863281 142.566406 C 156.386719 142.566406 164.089844 142.085938 164.089844 130.523438 C 164.089844 113.429688 129.894531 129.5625 115.925781 113.429688 C 102.683594 98.019531 114.722656 71.046875 131.820312 71.046875 C 134.710938 71.046875 138.082031 70.566406 138.566406 72.972656 C 139.289062 76.34375 132.785156 72.972656 132.785156 86.457031 C 132.785156 90.070312 137.363281 93.679688 143.863281 93.679688 C 151.324219 93.679688 159.273438 83.082031 159.273438 75.136719 C 159.273438 66.226562 158.792969 62.371094 152.046875 56.351562 C 138.566406 44.3125 114.722656 51.296875 103.164062 63.335938 C 96.417969 70.082031 90.160156 81.882812 90.160156 91.996094 Z M 90.160156 91.996094 " fill-opacity="0.341" fill-rule="evenodd"/><path fill="#ffffff" d="M 744.199219 98.742188 C 744.199219 110.058594 738.902344 119.933594 731.921875 127.398438 C 724.699219 135.585938 716.75 138.960938 705.671875 141.128906 C 691.707031 144.015625 697.964844 162.800781 726.140625 147.148438 C 746.128906 135.832031 761.78125 110.542969 755.515625 87.425781 C 754.792969 84.535156 753.109375 81.882812 749.738281 81.40625 C 740.828125 80.4375 744.199219 91.757812 744.199219 98.742188 Z M 744.199219 98.742188 " fill-opacity="1" fill-rule="evenodd"/><path fill="#ffffff" d="M 34.53125 69.121094 C 34.53125 61.171875 37.660156 55.636719 42.476562 52.023438 C 49.460938 46.964844 56.683594 47.691406 61.023438 45.761719 C 69.449219 41.910156 65.355469 25.535156 38.144531 40.464844 C 32.125 43.597656 28.996094 47.449219 26.105469 53.230469 C 23.699219 58.289062 21.289062 66.472656 22.25 73.457031 C 22.730469 77.3125 22.492188 91.277344 30.921875 88.628906 C 37.90625 86.457031 34.53125 76.828125 34.53125 69.121094 Z M 34.53125 69.121094 " fill-opacity="1" fill-rule="evenodd"/><path fill="#ffffff" d="M 82.695312 47.445312 C 84.863281 47.445312 90.882812 45.28125 90.882812 38.535156 C 90.882812 32.996094 80.046875 31.792969 77.15625 39.257812 C 75.46875 43.113281 78.121094 47.445312 82.695312 47.445312 Z M 82.695312 47.445312 " fill-opacity="1" fill-rule="evenodd"/><path fill="#ffffff" d="M 386.355469 51.058594 C 386.355469 64.789062 388.042969 82.609375 388.042969 91.035156 C 387.804688 97.054688 392.621094 127.640625 396.714844 132.9375 C 403.457031 142.324219 416.460938 136.066406 414.535156 124.75 C 414.054688 120.65625 413.089844 118.730469 412.367188 114.875 C 411.644531 111.503906 410.441406 107.890625 410.441406 104.761719 C 417.902344 104.039062 425.851562 102.355469 433.796875 102.355469 C 433.796875 137.273438 456.191406 126.675781 456.191406 116.800781 C 456.191406 107.652344 448.246094 72.011719 448.246094 52.507812 C 448.003906 33.484375 428.015625 37.578125 428.015625 47.691406 L 428.980469 74.175781 C 429.21875 76.828125 429.703125 77.789062 429.703125 81.402344 C 423.203125 82.125 414.535156 83.808594 408.03125 83.808594 C 408.03125 79.953125 407.550781 45.035156 406.34375 42.867188 C 402.011719 34.203125 386.355469 34.6875 386.355469 51.058594 Z M 386.355469 51.058594 " fill-opacity="1" fill-rule="evenodd"/><path fill="#ffffff" d="M 90.160156 86.21875 C 90.160156 104.519531 91.601562 113.667969 106.054688 126.671875 C 115.925781 135.582031 130.375 136.785156 143.863281 136.785156 C 156.386719 136.785156 164.089844 136.546875 164.089844 124.746094 C 164.089844 107.886719 129.894531 124.019531 115.925781 107.886719 C 102.683594 92.476562 114.722656 65.507812 131.820312 65.507812 C 134.710938 65.507812 138.082031 64.78125 138.566406 67.195312 C 139.289062 70.808594 132.785156 67.433594 132.785156 80.675781 C 132.785156 84.53125 137.363281 87.898438 143.863281 87.898438 C 151.324219 87.898438 159.273438 77.300781 159.273438 69.355469 C 159.273438 60.683594 158.792969 56.832031 152.046875 50.8125 C 138.566406 38.53125 114.722656 45.753906 103.164062 57.554688 C 96.417969 64.304688 90.160156 76.105469 90.160156 86.21875 Z M 90.160156 86.21875 " fill-opacity="1" fill-rule="evenodd"/><path fill="#ffffff" d="M 286.902344 66.230469 C 286.902344 75.140625 296.054688 113.1875 298.464844 125.230469 C 300.390625 135.824219 302.558594 139.195312 310.988281 139.195312 C 320.378906 139.195312 320.378906 128.117188 318.933594 121.613281 L 335.550781 133.894531 C 339.167969 136.0625 342.296875 136.785156 346.390625 134.617188 C 349.28125 133.175781 351.929688 129.5625 351.929688 125.707031 C 351.929688 118.246094 337 109.089844 330.738281 104.277344 C 327.609375 102.113281 324.960938 100.183594 322.070312 98.257812 C 325.4375 93.441406 347.113281 79.714844 347.113281 71.769531 C 347.113281 62.859375 336.515625 57.804688 329.054688 64.546875 L 310.027344 80.679688 C 307.621094 69.605469 309.066406 56.601562 297.265625 56.601562 C 290.03125 56.597656 286.902344 62.375 286.902344 66.230469 Z M 286.902344 66.230469 " fill-opacity="1" fill-rule="evenodd"/><path fill="#ffffff" d="M 481.953125 75.140625 C 487.976562 75.140625 489.417969 82.363281 485.808594 82.363281 C 481.714844 82.363281 480.511719 80.675781 476.175781 80.675781 C 477.382812 78.511719 478.585938 75.140625 481.953125 75.140625 Z M 455.46875 83.8125 C 455.46875 119.453125 494.957031 144.738281 517.835938 120.65625 C 524.820312 113.433594 519.039062 103.074219 510.851562 103.074219 C 504.59375 103.074219 500.980469 109.574219 497.847656 109.574219 C 493.03125 109.574219 486.289062 105.960938 484.367188 103.074219 C 497.128906 103.074219 508.445312 93.925781 508.445312 83.085938 C 508.445312 72.734375 507.722656 69.121094 500.5 62.136719 C 492.074219 53.464844 480.511719 52.023438 469.675781 57.320312 C 461.25 61.65625 455.46875 73.214844 455.46875 83.8125 Z M 455.46875 83.8125 " fill-opacity="1" fill-rule="evenodd"/><path fill="#ffffff" d="M 598.269531 83.085938 C 598.507812 78.753906 600.675781 76.585938 602.363281 73.453125 C 606.457031 74.417969 609.105469 76.105469 611.035156 78.992188 C 608.144531 81.160156 602.84375 82.847656 598.269531 83.085938 Z M 575.871094 89.585938 C 575.871094 99.941406 576.59375 110.054688 583.578125 117.761719 C 595.378906 131.003906 606.9375 131.726562 621.867188 124.261719 C 631.738281 119.203125 632.21875 111.015625 627.886719 106.441406 C 619.699219 98.253906 613.195312 107.882812 605.492188 107.882812 C 602.121094 107.882812 600.675781 106.679688 599.953125 104.03125 C 607.175781 103.304688 615.605469 100.175781 620.664062 97.53125 C 635.355469 90.066406 635.59375 71.761719 623.070312 61.410156 C 597.785156 40.707031 575.871094 63.101562 575.871094 89.585938 Z M 575.871094 89.585938 " fill-opacity="1" fill-rule="evenodd"/><path fill="#ffffff" d="M 548.421875 116.800781 C 548.421875 111.746094 546.976562 106.929688 546.253906 103.074219 C 545.289062 98.019531 544.566406 94.402344 544.566406 88.628906 C 546.972656 88.148438 552.03125 83.332031 561.183594 80.679688 C 564.316406 79.71875 567.445312 79.238281 570.09375 77.550781 C 579.246094 72.011719 578.523438 46.964844 540.472656 66.953125 C 537.34375 53.710938 524.339844 55.394531 520.96875 63.585938 C 518.320312 69.363281 523.859375 95.613281 525.0625 101.871094 C 526.265625 108.371094 527.714844 121.375 531.808594 124.507812 C 538.785156 130.046875 548.421875 124.75 548.421875 116.800781 Z M 548.421875 116.800781 " fill-opacity="1" fill-rule="evenodd"/><path fill="#ffffff" d="M 167.941406 53.464844 C 167.941406 70.5625 177.332031 76.34375 170.109375 110.296875 C 168.421875 118.726562 159.996094 138.472656 176.851562 138.472656 C 187.929688 138.472656 190.097656 116.316406 192.261719 104.039062 C 194.914062 87.90625 193.226562 78.269531 190.097656 62.621094 C 188.410156 54.195312 187.929688 44.558594 178.535156 44.558594 C 173 44.554688 167.941406 48.410156 167.941406 53.464844 Z M 167.941406 53.464844 " fill-opacity="1" fill-rule="evenodd"/><path fill="#ffffff" d="M 238.738281 102.351562 C 238.738281 118.246094 250.054688 134.378906 265.949219 134.378906 C 273.410156 134.378906 285.453125 135.34375 290.511719 130.285156 C 296.054688 124.746094 293.164062 114.390625 284.972656 112.949219 L 265.949219 113.671875 C 262.578125 113.671875 259.449219 108.375 259.449219 102.355469 C 259.449219 90.074219 273.894531 98.742188 273.894531 82.367188 C 273.894531 77.550781 268.839844 73.941406 264.984375 73.699219 C 253.1875 72.734375 238.738281 86.941406 238.738281 102.351562 Z M 238.738281 102.351562 " fill-opacity="1" fill-rule="evenodd"/><path fill="#ffffff" d="M 676.046875 112.707031 C 676.046875 100.429688 674.359375 83.8125 672.917969 71.769531 C 671.953125 62.382812 677.25 41.429688 662.5625 41.429688 C 651.96875 41.429688 651.488281 53.230469 651.96875 61.417969 C 652.929688 70.566406 652.691406 81.40625 653.652344 91.039062 C 654.378906 97.78125 655.339844 112.953125 658.230469 117.046875 C 664.007812 124.503906 676.046875 120.894531 676.046875 112.707031 Z M 676.046875 112.707031 " fill-opacity="1" fill-rule="evenodd"/><path fill="#ffffff" d="M 204.0625 95.128906 C 204.0625 106.445312 205.992188 109.335938 208.878906 120.171875 C 210.566406 127.15625 210.808594 135.34375 220.195312 135.34375 C 234.644531 135.34375 229.585938 119.207031 228.382812 114.152344 C 225.015625 101.148438 225.492188 86.21875 213.691406 86.21875 C 208.636719 86.21875 204.0625 90.070312 204.0625 95.128906 Z M 204.0625 95.128906 " fill-opacity="1" fill-rule="evenodd"/><path fill="#ffffff" d="M 202.617188 65.507812 C 202.617188 68.875 205.023438 73.214844 206.46875 75.140625 C 213.691406 85.253906 227.898438 77.546875 225.253906 67.433594 C 221.398438 51.058594 202.617188 53.464844 202.617188 65.507812 Z M 202.617188 65.507812 " fill-opacity="1" fill-rule="evenodd"/><path fill="#ffffff" d="M 655.339844 146.417969 C 655.339844 162.074219 678.457031 159.183594 678.457031 144.976562 C 678.457031 130.523438 655.339844 133.898438 655.339844 146.417969 Z M 655.339844 146.417969 " fill-opacity="1" fill-rule="evenodd"/><g clip-path="url(#8b9ec76104)"><g transform="matrix(1, 0, 0, 1, 249, 34)"><g clip-path="url(#5db85ec3ef)"><g clip-path="url(#f7ba0928f0)"><path fill="#6d4d30" d="M 0.136719 0.910156 L 437.226562 0.910156 L 437.226562 128.933594 L 0.136719 128.933594 Z M 0.136719 0.910156 " fill-opacity="1" fill-rule="nonzero"/></g></g></g></g><g clip-path="url(#6c881ecae5)"><g transform="matrix(1, 0, 0, 1, 74, 25)"><g clip-path="url(#10514bcdc7)"><g clip-path="url(#13ae2178f5)"><path fill="#6d4d30" d="M 0.253906 0.820312 L 437.644531 0.820312 L 437.644531 133.644531 L 0.253906 133.644531 Z M 0.253906 0.820312 " fill-opacity="1" fill-rule="nonzero"/></g></g></g></g><g transform="matrix(1, 0, 0, 1, 241, 53)"><g clip-path="url(#e6e9c79162)"><g fill="#000000" fill-opacity="0.4"><g transform="translate(6.103356, 104.435024)"><g><path d="M 52.25 -28.1875 C 54.445312 -28.8125 56.347656 -28.726562 57.953125 -27.9375 C 59.554688 -27.15625 60.804688 -25.984375 61.703125 -24.421875 C 62.609375 -22.859375 63.078125 -21.175781 63.109375 -19.375 C 63.148438 -17.570312 62.679688 -15.90625 61.703125 -14.375 C 60.722656 -12.851562 59.140625 -11.816406 56.953125 -11.265625 C 52.960938 -10.097656 48.867188 -9.238281 44.671875 -8.6875 C 40.484375 -8.144531 36.332031 -8.125 32.21875 -8.625 C 28.113281 -9.132812 24.1875 -10.445312 20.4375 -12.5625 C 15.582031 -15.382812 11.878906 -19.222656 9.328125 -24.078125 C 6.785156 -28.929688 5.632812 -34.132812 5.875 -39.6875 C 6.1875 -45.164062 7.554688 -50.429688 9.984375 -55.484375 C 12.410156 -60.535156 15.640625 -64.976562 19.671875 -68.8125 C 23.703125 -72.644531 28.28125 -75.597656 33.40625 -77.671875 C 38.53125 -79.742188 43.875 -80.585938 49.4375 -80.203125 C 51.707031 -79.960938 53.523438 -79.195312 54.890625 -77.90625 C 56.265625 -76.613281 57.164062 -75.085938 57.59375 -73.328125 C 58.019531 -71.566406 58.019531 -69.820312 57.59375 -68.09375 C 57.164062 -66.375 56.265625 -64.96875 54.890625 -63.875 C 53.523438 -62.78125 51.707031 -62.347656 49.4375 -62.578125 C 45.363281 -62.898438 41.503906 -62.140625 37.859375 -60.296875 C 34.222656 -58.453125 31.148438 -55.882812 28.640625 -52.59375 C 26.140625 -49.3125 24.539062 -45.675781 23.84375 -41.6875 C 23.132812 -38.082031 23.304688 -35.203125 24.359375 -33.046875 C 25.421875 -30.898438 27.007812 -29.316406 29.125 -28.296875 C 31.238281 -27.273438 33.644531 -26.644531 36.34375 -26.40625 C 39.039062 -26.175781 41.78125 -26.253906 44.5625 -26.640625 C 47.34375 -27.035156 49.90625 -27.550781 52.25 -28.1875 Z M 52.25 -28.1875 "/></g></g></g><g fill="#000000" fill-opacity="0.4"><g transform="translate(75.145704, 104.435024)"><g><path d="M 65.28125 -71.75 C 67.164062 -68.695312 68.457031 -65.269531 69.15625 -61.46875 C 69.863281 -57.675781 70.175781 -53.84375 70.09375 -49.96875 C 70.019531 -46.09375 69.707031 -42.46875 69.15625 -39.09375 C 68.375 -33.9375 66.769531 -29.046875 64.34375 -24.421875 C 61.914062 -19.804688 58.664062 -15.816406 54.59375 -12.453125 C 50.6875 -9.234375 46.148438 -6.878906 40.984375 -5.390625 C 35.816406 -3.910156 30.765625 -3.953125 25.828125 -5.515625 C 22.546875 -6.535156 19.691406 -8.21875 17.265625 -10.5625 C 14.835938 -12.914062 12.800781 -15.597656 11.15625 -18.609375 C 9.507812 -21.617188 8.296875 -24.691406 7.515625 -27.828125 C 6.578125 -31.273438 6.03125 -35.25 5.875 -39.75 C 5.71875 -44.25 6.03125 -48.847656 6.8125 -53.546875 C 7.59375 -58.242188 8.882812 -62.625 10.6875 -66.6875 C 12.488281 -70.757812 14.914062 -74.128906 17.96875 -76.796875 C 21.09375 -80.003906 24.847656 -82.269531 29.234375 -83.59375 C 33.617188 -84.925781 38.117188 -85.378906 42.734375 -84.953125 C 47.359375 -84.523438 51.664062 -83.191406 55.65625 -80.953125 C 59.644531 -78.722656 62.851562 -75.65625 65.28125 -71.75 Z M 43.921875 -26.0625 C 46.578125 -28.570312 48.550781 -31.488281 49.84375 -34.8125 C 51.132812 -38.144531 51.9375 -41.628906 52.25 -45.265625 C 52.5625 -48.898438 52.484375 -52.441406 52.015625 -55.890625 C 51.546875 -59.335938 50.195312 -62.15625 47.96875 -64.34375 C 45.738281 -66.539062 42.78125 -67.597656 39.09375 -67.515625 C 37.0625 -67.515625 35.085938 -67.003906 33.171875 -65.984375 C 31.253906 -64.972656 29.671875 -63.644531 28.421875 -62 C 27.003906 -60.039062 25.984375 -57.691406 25.359375 -54.953125 C 24.734375 -52.210938 24.265625 -49.671875 23.953125 -47.328125 C 23.242188 -42.078125 23.519531 -36.910156 24.78125 -31.828125 C 25.164062 -30.335938 25.691406 -28.847656 26.359375 -27.359375 C 27.023438 -25.867188 27.984375 -24.65625 29.234375 -23.71875 C 31.273438 -22.226562 33.601562 -21.695312 36.21875 -22.125 C 38.84375 -22.5625 41.132812 -23.601562 43.09375 -25.25 C 43.332031 -25.476562 43.609375 -25.75 43.921875 -26.0625 Z M 43.921875 -26.0625 "/></g></g></g><g fill="#000000" fill-opacity="0.4"><g transform="translate(151.11577, 104.435024)"><g><path d="M 47.4375 -80.078125 C 51.195312 -78.585938 54.617188 -76.585938 57.703125 -74.078125 C 60.796875 -71.578125 63.300781 -68.722656 65.21875 -65.515625 C 67.144531 -62.304688 68.242188 -58.820312 68.515625 -55.0625 C 68.785156 -51.3125 67.984375 -47.398438 66.109375 -43.328125 C 63.679688 -38.316406 60.3125 -34.363281 56 -31.46875 C 51.695312 -28.570312 46.941406 -26.691406 41.734375 -25.828125 C 36.535156 -24.972656 31.390625 -25.171875 26.296875 -26.421875 C 25.828125 -21.960938 25.359375 -17.5 24.890625 -13.03125 C 24.421875 -8.570312 23.953125 -4.109375 23.484375 0.359375 C 23.242188 2.617188 22.476562 4.414062 21.1875 5.75 C 19.894531 7.082031 18.347656 7.984375 16.546875 8.453125 C 14.753906 8.921875 12.992188 8.921875 11.265625 8.453125 C 9.546875 7.984375 8.175781 7.082031 7.15625 5.75 C 6.144531 4.414062 5.71875 2.617188 5.875 0.359375 C 6.96875 -10.128906 8.019531 -20.660156 9.03125 -31.234375 C 10.050781 -41.804688 11.148438 -52.335938 12.328125 -62.828125 C 12.878906 -66.972656 14.015625 -70.707031 15.734375 -74.03125 C 17.453125 -77.363281 20.390625 -79.8125 24.546875 -81.375 C 28.222656 -82.78125 32.078125 -83.265625 36.109375 -82.828125 C 40.140625 -82.398438 43.914062 -81.484375 47.4375 -80.078125 Z M 28.0625 -44.15625 C 30.019531 -43.601562 32.25 -43.265625 34.75 -43.140625 C 37.257812 -43.023438 39.726562 -43.28125 42.15625 -43.90625 C 44.582031 -44.539062 46.613281 -45.617188 48.25 -47.140625 C 49.894531 -48.671875 50.835938 -50.804688 51.078125 -53.546875 C 51.234375 -55.265625 50.644531 -56.90625 49.3125 -58.46875 C 47.988281 -60.039062 46.269531 -61.429688 44.15625 -62.640625 C 42.039062 -63.859375 39.925781 -64.71875 37.8125 -65.21875 C 35.695312 -65.726562 33.894531 -65.75 32.40625 -65.28125 C 31.539062 -65.050781 31.007812 -64.894531 30.8125 -64.8125 C 30.625 -64.738281 30.53125 -64.5625 30.53125 -64.28125 C 30.53125 -64.007812 30.332031 -63.523438 29.9375 -62.828125 C 29.46875 -61.722656 29.234375 -60.3125 29.234375 -58.59375 C 29.234375 -56.875 29.195312 -55.382812 29.125 -54.125 C 28.96875 -52.488281 28.789062 -50.828125 28.59375 -49.140625 C 28.394531 -47.453125 28.21875 -45.789062 28.0625 -44.15625 Z M 28.0625 -44.15625 "/></g></g></g><g fill="#000000" fill-opacity="0.4"><g transform="translate(225.559383, 104.435024)"><g><path d="M 47.4375 -80.3125 C 47.675781 -82.582031 48.476562 -84.285156 49.84375 -85.421875 C 51.21875 -86.554688 52.785156 -87.203125 54.546875 -87.359375 C 56.304688 -87.515625 58.023438 -87.203125 59.703125 -86.421875 C 61.390625 -85.640625 62.722656 -84.460938 63.703125 -82.890625 C 64.679688 -81.328125 65.015625 -79.453125 64.703125 -77.265625 C 64.078125 -72.171875 63.488281 -66.785156 62.9375 -61.109375 C 62.382812 -55.441406 61.582031 -49.75 60.53125 -44.03125 C 59.476562 -38.320312 57.953125 -32.882812 55.953125 -27.71875 C 53.953125 -22.550781 51.226562 -17.910156 47.78125 -13.796875 C 44.34375 -9.679688 39.921875 -6.375 34.515625 -3.875 C 32.484375 -2.9375 30.625 -2.738281 28.9375 -3.28125 C 27.257812 -3.832031 25.910156 -4.832031 24.890625 -6.28125 C 23.867188 -7.726562 23.257812 -9.367188 23.0625 -11.203125 C 22.875 -13.046875 23.191406 -14.804688 24.015625 -16.484375 C 24.835938 -18.171875 26.265625 -19.445312 28.296875 -20.3125 C 30.960938 -21.5625 33.132812 -23.242188 34.8125 -25.359375 C 36.5 -27.472656 37.847656 -29.820312 38.859375 -32.40625 C 35.648438 -31.3125 32.382812 -30.78125 29.0625 -30.8125 C 25.738281 -30.851562 22.46875 -31.695312 19.25 -33.34375 C 15.03125 -35.457031 11.878906 -38.429688 9.796875 -42.265625 C 7.722656 -46.109375 6.488281 -50.316406 6.09375 -54.890625 C 5.707031 -59.472656 5.925781 -64.050781 6.75 -68.625 C 7.570312 -73.207031 8.804688 -77.335938 10.453125 -81.015625 C 11.304688 -83.128906 12.554688 -84.554688 14.203125 -85.296875 C 15.847656 -86.046875 17.550781 -86.265625 19.3125 -85.953125 C 21.070312 -85.640625 22.65625 -84.894531 24.0625 -83.71875 C 25.476562 -82.539062 26.441406 -81.09375 26.953125 -79.375 C 27.460938 -77.65625 27.285156 -75.738281 26.421875 -73.625 C 25.796875 -72.289062 25.171875 -70.488281 24.546875 -68.21875 C 23.921875 -65.945312 23.46875 -63.554688 23.1875 -61.046875 C 22.914062 -58.546875 23.015625 -56.238281 23.484375 -54.125 C 23.953125 -52.019531 25.046875 -50.414062 26.765625 -49.3125 C 28.335938 -48.21875 30.039062 -47.863281 31.875 -48.25 C 33.71875 -48.644531 35.476562 -49.488281 37.15625 -50.78125 C 38.84375 -52.070312 40.351562 -53.539062 41.6875 -55.1875 C 43.019531 -56.832031 44.078125 -58.320312 44.859375 -59.65625 C 45.328125 -63.09375 45.753906 -66.535156 46.140625 -69.984375 C 46.535156 -73.429688 46.96875 -76.875 47.4375 -80.3125 Z M 47.4375 -80.3125 "/></g></g></g><g fill="#f1cc09" fill-opacity="1"><g transform="translate(0.913913, 99.245552)"><g><path d="M 52.25 -28.1875 C 54.445312 -28.8125 56.347656 -28.726562 57.953125 -27.9375 C 59.554688 -27.15625 60.804688 -25.984375 61.703125 -24.421875 C 62.609375 -22.859375 63.078125 -21.175781 63.109375 -19.375 C 63.148438 -17.570312 62.679688 -15.90625 61.703125 -14.375 C 60.722656 -12.851562 59.140625 -11.816406 56.953125 -11.265625 C 52.960938 -10.097656 48.867188 -9.238281 44.671875 -8.6875 C 40.484375 -8.144531 36.332031 -8.125 32.21875 -8.625 C 28.113281 -9.132812 24.1875 -10.445312 20.4375 -12.5625 C 15.582031 -15.382812 11.878906 -19.222656 9.328125 -24.078125 C 6.785156 -28.929688 5.632812 -34.132812 5.875 -39.6875 C 6.1875 -45.164062 7.554688 -50.429688 9.984375 -55.484375 C 12.410156 -60.535156 15.640625 -64.976562 19.671875 -68.8125 C 23.703125 -72.644531 28.28125 -75.597656 33.40625 -77.671875 C 38.53125 -79.742188 43.875 -80.585938 49.4375 -80.203125 C 51.707031 -79.960938 53.523438 -79.195312 54.890625 -77.90625 C 56.265625 -76.613281 57.164062 -75.085938 57.59375 -73.328125 C 58.019531 -71.566406 58.019531 -69.820312 57.59375 -68.09375 C 57.164062 -66.375 56.265625 -64.96875 54.890625 -63.875 C 53.523438 -62.78125 51.707031 -62.347656 49.4375 -62.578125 C 45.363281 -62.898438 41.503906 -62.140625 37.859375 -60.296875 C 34.222656 -58.453125 31.148438 -55.882812 28.640625 -52.59375 C 26.140625 -49.3125 24.539062 -45.675781 23.84375 -41.6875 C 23.132812 -38.082031 23.304688 -35.203125 24.359375 -33.046875 C 25.421875 -30.898438 27.007812 -29.316406 29.125 -28.296875 C 31.238281 -27.273438 33.644531 -26.644531 36.34375 -26.40625 C 39.039062 -26.175781 41.78125 -26.253906 44.5625 -26.640625 C 47.34375 -27.035156 49.90625 -27.550781 52.25 -28.1875 Z M 52.25 -28.1875 "/></g></g></g><g fill="#f1cc09" fill-opacity="1"><g transform="translate(69.956261, 99.245552)"><g><path d="M 65.28125 -71.75 C 67.164062 -68.695312 68.457031 -65.269531 69.15625 -61.46875 C 69.863281 -57.675781 70.175781 -53.84375 70.09375 -49.96875 C 70.019531 -46.09375 69.707031 -42.46875 69.15625 -39.09375 C 68.375 -33.9375 66.769531 -29.046875 64.34375 -24.421875 C 61.914062 -19.804688 58.664062 -15.816406 54.59375 -12.453125 C 50.6875 -9.234375 46.148438 -6.878906 40.984375 -5.390625 C 35.816406 -3.910156 30.765625 -3.953125 25.828125 -5.515625 C 22.546875 -6.535156 19.691406 -8.21875 17.265625 -10.5625 C 14.835938 -12.914062 12.800781 -15.597656 11.15625 -18.609375 C 9.507812 -21.617188 8.296875 -24.691406 7.515625 -27.828125 C 6.578125 -31.273438 6.03125 -35.25 5.875 -39.75 C 5.71875 -44.25 6.03125 -48.847656 6.8125 -53.546875 C 7.59375 -58.242188 8.882812 -62.625 10.6875 -66.6875 C 12.488281 -70.757812 14.914062 -74.128906 17.96875 -76.796875 C 21.09375 -80.003906 24.847656 -82.269531 29.234375 -83.59375 C 33.617188 -84.925781 38.117188 -85.378906 42.734375 -84.953125 C 47.359375 -84.523438 51.664062 -83.191406 55.65625 -80.953125 C 59.644531 -78.722656 62.851562 -75.65625 65.28125 -71.75 Z M 43.921875 -26.0625 C 46.578125 -28.570312 48.550781 -31.488281 49.84375 -34.8125 C 51.132812 -38.144531 51.9375 -41.628906 52.25 -45.265625 C 52.5625 -48.898438 52.484375 -52.441406 52.015625 -55.890625 C 51.546875 -59.335938 50.195312 -62.15625 47.96875 -64.34375 C 45.738281 -66.539062 42.78125 -67.597656 39.09375 -67.515625 C 37.0625 -67.515625 35.085938 -67.003906 33.171875 -65.984375 C 31.253906 -64.972656 29.671875 -63.644531 28.421875 -62 C 27.003906 -60.039062 25.984375 -57.691406 25.359375 -54.953125 C 24.734375 -52.210938 24.265625 -49.671875 23.953125 -47.328125 C 23.242188 -42.078125 23.519531 -36.910156 24.78125 -31.828125 C 25.164062 -30.335938 25.691406 -28.847656 26.359375 -27.359375 C 27.023438 -25.867188 27.984375 -24.65625 29.234375 -23.71875 C 31.273438 -22.226562 33.601562 -21.695312 36.21875 -22.125 C 38.84375 -22.5625 41.132812 -23.601562 43.09375 -25.25 C 43.332031 -25.476562 43.609375 -25.75 43.921875 -26.0625 Z M 43.921875 -26.0625 "/></g></g></g><g fill="#f1cc09" fill-opacity="1"><g transform="translate(145.926327, 99.245552)"><g><path d="M 47.4375 -80.078125 C 51.195312 -78.585938 54.617188 -76.585938 57.703125 -74.078125 C 60.796875 -71.578125 63.300781 -68.722656 65.21875 -65.515625 C 67.144531 -62.304688 68.242188 -58.820312 68.515625 -55.0625 C 68.785156 -51.3125 67.984375 -47.398438 66.109375 -43.328125 C 63.679688 -38.316406 60.3125 -34.363281 56 -31.46875 C 51.695312 -28.570312 46.941406 -26.691406 41.734375 -25.828125 C 36.535156 -24.972656 31.390625 -25.171875 26.296875 -26.421875 C 25.828125 -21.960938 25.359375 -17.5 24.890625 -13.03125 C 24.421875 -8.570312 23.953125 -4.109375 23.484375 0.359375 C 23.242188 2.617188 22.476562 4.414062 21.1875 5.75 C 19.894531 7.082031 18.347656 7.984375 16.546875 8.453125 C 14.753906 8.921875 12.992188 8.921875 11.265625 8.453125 C 9.546875 7.984375 8.175781 7.082031 7.15625 5.75 C 6.144531 4.414062 5.71875 2.617188 5.875 0.359375 C 6.96875 -10.128906 8.019531 -20.660156 9.03125 -31.234375 C 10.050781 -41.804688 11.148438 -52.335938 12.328125 -62.828125 C 12.878906 -66.972656 14.015625 -70.707031 15.734375 -74.03125 C 17.453125 -77.363281 20.390625 -79.8125 24.546875 -81.375 C 28.222656 -82.78125 32.078125 -83.265625 36.109375 -82.828125 C 40.140625 -82.398438 43.914062 -81.484375 47.4375 -80.078125 Z M 28.0625 -44.15625 C 30.019531 -43.601562 32.25 -43.265625 34.75 -43.140625 C 37.257812 -43.023438 39.726562 -43.28125 42.15625 -43.90625 C 44.582031 -44.539062 46.613281 -45.617188 48.25 -47.140625 C 49.894531 -48.671875 50.835938 -50.804688 51.078125 -53.546875 C 51.234375 -55.265625 50.644531 -56.90625 49.3125 -58.46875 C 47.988281 -60.039062 46.269531 -61.429688 44.15625 -62.640625 C 42.039062 -63.859375 39.925781 -64.71875 37.8125 -65.21875 C 35.695312 -65.726562 33.894531 -65.75 32.40625 -65.28125 C 31.539062 -65.050781 31.007812 -64.894531 30.8125 -64.8125 C 30.625 -64.738281 30.53125 -64.5625 30.53125 -64.28125 C 30.53125 -64.007812 30.332031 -63.523438 29.9375 -62.828125 C 29.46875 -61.722656 29.234375 -60.3125 29.234375 -58.59375 C 29.234375 -56.875 29.195312 -55.382812 29.125 -54.125 C 28.96875 -52.488281 28.789062 -50.828125 28.59375 -49.140625 C 28.394531 -47.453125 28.21875 -45.789062 28.0625 -44.15625 Z M 28.0625 -44.15625 "/></g></g></g><g fill="#f1cc09" fill-opacity="1"><g transform="translate(220.36994, 99.245552)"><g><path d="M 47.4375 -80.3125 C 47.675781 -82.582031 48.476562 -84.285156 49.84375 -85.421875 C 51.21875 -86.554688 52.785156 -87.203125 54.546875 -87.359375 C 56.304688 -87.515625 58.023438 -87.203125 59.703125 -86.421875 C 61.390625 -85.640625 62.722656 -84.460938 63.703125 -82.890625 C 64.679688 -81.328125 65.015625 -79.453125 64.703125 -77.265625 C 64.078125 -72.171875 63.488281 -66.785156 62.9375 -61.109375 C 62.382812 -55.441406 61.582031 -49.75 60.53125 -44.03125 C 59.476562 -38.320312 57.953125 -32.882812 55.953125 -27.71875 C 53.953125 -22.550781 51.226562 -17.910156 47.78125 -13.796875 C 44.34375 -9.679688 39.921875 -6.375 34.515625 -3.875 C 32.484375 -2.9375 30.625 -2.738281 28.9375 -3.28125 C 27.257812 -3.832031 25.910156 -4.832031 24.890625 -6.28125 C 23.867188 -7.726562 23.257812 -9.367188 23.0625 -11.203125 C 22.875 -13.046875 23.191406 -14.804688 24.015625 -16.484375 C 24.835938 -18.171875 26.265625 -19.445312 28.296875 -20.3125 C 30.960938 -21.5625 33.132812 -23.242188 34.8125 -25.359375 C 36.5 -27.472656 37.847656 -29.820312 38.859375 -32.40625 C 35.648438 -31.3125 32.382812 -30.78125 29.0625 -30.8125 C 25.738281 -30.851562 22.46875 -31.695312 19.25 -33.34375 C 15.03125 -35.457031 11.878906 -38.429688 9.796875 -42.265625 C 7.722656 -46.109375 6.488281 -50.316406 6.09375 -54.890625 C 5.707031 -59.472656 5.925781 -64.050781 6.75 -68.625 C 7.570312 -73.207031 8.804688 -77.335938 10.453125 -81.015625 C 11.304688 -83.128906 12.554688 -84.554688 14.203125 -85.296875 C 15.847656 -86.046875 17.550781 -86.265625 19.3125 -85.953125 C 21.070312 -85.640625 22.65625 -84.894531 24.0625 -83.71875 C 25.476562 -82.539062 26.441406 -81.09375 26.953125 -79.375 C 27.460938 -77.65625 27.285156 -75.738281 26.421875 -73.625 C 25.796875 -72.289062 25.171875 -70.488281 24.546875 -68.21875 C 23.921875 -65.945312 23.46875 -63.554688 23.1875 -61.046875 C 22.914062 -58.546875 23.015625 -56.238281 23.484375 -54.125 C 23.953125 -52.019531 25.046875 -50.414062 26.765625 -49.3125 C 28.335938 -48.21875 30.039062 -47.863281 31.875 -48.25 C 33.71875 -48.644531 35.476562 -49.488281 37.15625 -50.78125 C 38.84375 -52.070312 40.351562 -53.539062 41.6875 -55.1875 C 43.019531 -56.832031 44.078125 -58.320312 44.859375 -59.65625 C 45.328125 -63.09375 45.753906 -66.535156 46.140625 -69.984375 C 46.535156 -73.429688 46.96875 -76.875 47.4375 -80.3125 Z M 47.4375 -80.3125 "/></g></g></g><g fill="#f1cc09" fill-opacity="1"><g transform="translate(291.066747, 99.245552)"><g/></g></g></g></g></g></g></svg>