<svg xmlns="http://www.w3.org/2000/svg" xmlns:xlink="http://www.w3.org/1999/xlink" width="1080" zoomAndPan="magnify" viewBox="0 0 810 1439.999935" height="1920" preserveAspectRatio="xMidYMid meet" version="1.0"><defs><g/><clipPath id="f853c5e574"><path d="M 0 5.191406 L 784.800781 5.191406 L 784.800781 203 L 0 203 Z M 0 5.191406 " clip-rule="nonzero"/></clipPath><clipPath id="a8cf259b15"><path d="M 249.136719 35.03125 L 686.273438 35.03125 L 686.273438 163.058594 L 249.136719 163.058594 Z M 249.136719 35.03125 " clip-rule="nonzero"/></clipPath><clipPath id="4936bd9359"><path d="M 0.136719 0.03125 L 437.273438 0.03125 L 437.273438 128.058594 L 0.136719 128.058594 Z M 0.136719 0.03125 " clip-rule="nonzero"/></clipPath><clipPath id="7f8632e5ca"><rect x="0" width="438" y="0" height="129"/></clipPath><clipPath id="6569c085df"><path d="M 74.253906 25.945312 L 511.390625 25.945312 L 511.390625 158.769531 L 74.253906 158.769531 Z M 74.253906 25.945312 " clip-rule="nonzero"/></clipPath><clipPath id="c1e9c6c473"><path d="M 0.253906 0.945312 L 437.390625 0.945312 L 437.390625 133.769531 L 0.253906 133.769531 Z M 0.253906 0.945312 " clip-rule="nonzero"/></clipPath><clipPath id="fa303af534"><rect x="0" width="438" y="0" height="134"/></clipPath><clipPath id="553b6f6783"><rect x="0" width="620" y="0" height="124"/></clipPath><clipPath id="c4379df388"><rect x="0" width="785" y="0" height="206"/></clipPath></defs><rect x="-81" width="972" fill="#ffffff" y="-143.999994" height="1727.999922" fill-opacity="1"/><rect x="-81" width="972" fill="#ffffff" y="-143.999994" height="1727.999922" fill-opacity="1"/><g transform="matrix(1, 0, 0, 1, 18, 553)"><g clip-path="url(#c4379df388)"><g clip-path="url(#f853c5e574)"><path fill="#6d4d30" d="M 0.0976562 95.976562 C 0.0976562 115.238281 2.503906 127.765625 11.171875 143.414062 C 30.4375 178.332031 75.707031 186.757812 115.683594 192.300781 C 140.246094 195.914062 161.4375 197.355469 185.519531 198.558594 C 210.082031 199.761719 234.402344 201.929688 259.449219 201.929688 L 341.324219 202.652344 C 361.070312 202.652344 378.648438 201.929688 397.433594 201.929688 L 452.816406 200.242188 C 462.207031 199.761719 472.320312 200.722656 480.511719 199.761719 L 631.015625 193.503906 L 670.265625 189.648438 C 712.648438 183.867188 765.871094 169.183594 781.042969 128.722656 C 789.953125 105.367188 781.765625 83.210938 768.277344 64.667969 C 762.738281 56.722656 753.832031 49.738281 745.640625 44.921875 C 742.507812 42.992188 739.378906 41.550781 736.003906 39.863281 C 705.179688 24.453125 657.257812 16.023438 621.863281 11.207031 C 612.953125 9.761719 591.761719 7.59375 583.089844 7.59375 C 577.070312 7.59375 574.902344 6.628906 569.363281 6.867188 C 552.746094 6.867188 530.589844 5.179688 513.015625 5.179688 L 403.203125 8.3125 C 397.664062 8.3125 395.742188 9.273438 385.382812 9.273438 L 322.78125 12.414062 C 319.890625 12.652344 316.277344 12.171875 313.144531 12.414062 C 309.292969 12.414062 308.8125 13.136719 304.476562 13.136719 L 259.207031 15.304688 C 248.132812 16.992188 233.925781 15.0625 222.847656 16.746094 L 112.074219 19.15625 C 107.496094 19.636719 99.550781 19.878906 94.738281 20.359375 C 69.933594 23.011719 37.664062 25.417969 18.15625 38.421875 C 9.488281 44.199219 6.597656 50.945312 4.429688 62.261719 C 2.261719 73.097656 0.0976562 83.210938 0.0976562 95.976562 Z M 0.0976562 95.976562 " fill-opacity="1" fill-rule="evenodd"/></g><path fill="#913b92" d="M 17.917969 96.457031 C 17.917969 115.71875 19.121094 125.832031 30.199219 142.691406 C 36.21875 151.601562 47.292969 159.308594 57.167969 163.882812 C 82.453125 175.199219 108.460938 177.847656 136.394531 181.703125 L 192.023438 186.277344 C 195.875 186.519531 200.210938 186.039062 204.0625 186.519531 C 210.324219 187 220.195312 187.242188 226.703125 187.960938 C 239.226562 188.925781 260.894531 188.683594 273.898438 188.683594 C 282.570312 188.683594 288.347656 189.410156 297.257812 189.410156 L 411.160156 188.683594 C 417.421875 188.683594 421.035156 187.960938 426.332031 187.960938 C 435.242188 187.960938 450.171875 188.683594 458.117188 187.480469 C 466.542969 186.277344 480.511719 187.003906 489.183594 186.277344 C 493.761719 186.039062 500.257812 186.277344 505.078125 186.277344 L 536.378906 185.554688 C 542.160156 185.554688 545.289062 184.59375 551.550781 184.59375 C 572.980469 184.832031 593.933594 182.664062 613.441406 182.183594 L 671.714844 176.40625 C 693.390625 172.792969 714.09375 167.496094 732.878906 157.140625 C 734.804688 155.9375 736.25 155.453125 737.9375 154.25 C 739.625 153.289062 741.066406 152.085938 742.515625 150.882812 C 744.921875 148.953125 749.257812 145.585938 751.183594 143.417969 C 752.628906 141.492188 753.351562 140.527344 754.554688 138.839844 C 763.464844 127.765625 767.316406 117.167969 765.632812 105.125 C 764.667969 113.3125 760.8125 121.019531 754.554688 128.726562 C 753.351562 130.414062 752.628906 131.617188 751.183594 133.304688 C 749.257812 135.472656 744.925781 139.085938 742.515625 140.769531 C 741.070312 141.972656 739.625 143.175781 737.9375 144.382812 C 736.25 145.585938 734.804688 146.070312 732.878906 147.03125 C 714.09375 157.628906 693.390625 162.6875 671.714844 166.296875 L 613.441406 172.316406 C 593.9375 172.796875 572.984375 174.722656 551.550781 174.722656 C 545.289062 174.722656 542.160156 175.445312 536.378906 175.445312 L 505.078125 176.167969 C 500.257812 176.167969 493.761719 175.929688 489.183594 176.410156 C 480.511719 176.890625 466.542969 176.167969 458.117188 177.613281 C 450.171875 178.816406 435.242188 177.851562 426.332031 177.851562 C 421.035156 177.851562 417.421875 178.574219 411.160156 178.574219 L 297.257812 179.539062 C 288.347656 179.539062 282.566406 178.574219 273.898438 178.574219 C 260.894531 178.574219 239.222656 178.816406 226.703125 177.851562 C 220.203125 177.371094 210.328125 177.128906 204.0625 176.410156 C 200.210938 175.929688 195.875 176.410156 192.023438 176.167969 L 136.394531 171.59375 C 108.460938 167.980469 82.453125 165.09375 57.167969 153.773438 C 47.292969 149.4375 36.21875 141.730469 30.199219 132.582031 C 20.5625 117.890625 18.398438 108.261719 17.917969 92.847656 C 17.917969 94.050781 17.917969 95.253906 17.917969 96.457031 Z M 17.917969 96.457031 " fill-opacity="1" fill-rule="evenodd"/><path fill="#913b92" d="M 386.355469 56.722656 C 386.355469 70.449219 388.042969 88.269531 388.042969 96.933594 C 387.804688 102.714844 392.621094 133.296875 396.714844 138.835938 C 403.457031 147.988281 416.460938 141.726562 414.535156 130.410156 C 414.054688 126.558594 413.089844 124.390625 412.367188 120.535156 C 411.644531 117.167969 410.441406 113.792969 410.441406 110.664062 C 417.902344 109.9375 425.851562 108.257812 433.796875 108.257812 C 433.796875 143.175781 456.191406 132.578125 456.191406 122.703125 C 456.191406 113.554688 448.246094 77.671875 448.246094 58.40625 C 448.003906 39.144531 428.015625 43.476562 428.015625 53.589844 L 428.980469 79.839844 C 429.21875 82.488281 429.703125 83.453125 429.703125 87.300781 C 423.203125 87.78125 414.535156 89.707031 408.03125 89.707031 C 408.03125 85.855469 407.550781 50.9375 406.34375 48.769531 C 402.011719 40.109375 386.355469 40.347656 386.355469 56.722656 Z M 655.339844 152.324219 C 655.339844 167.734375 678.457031 164.847656 678.457031 150.636719 C 678.457031 136.425781 655.339844 139.804688 655.339844 152.324219 Z M 202.617188 71.171875 C 202.617188 74.542969 205.023438 78.878906 206.46875 80.804688 C 213.691406 91.160156 227.898438 83.457031 225.253906 73.34375 C 221.398438 56.722656 202.617188 59.132812 202.617188 71.171875 Z M 204.0625 101.03125 C 204.0625 112.351562 205.992188 115.238281 208.878906 125.835938 C 210.566406 133.0625 210.808594 141.007812 220.195312 141.007812 C 234.644531 141.007812 229.585938 125.113281 228.382812 120.058594 C 225.015625 106.8125 225.492188 92.121094 213.691406 92.121094 C 208.636719 92.121094 204.0625 95.730469 204.0625 101.03125 Z M 676.046875 118.609375 C 676.046875 106.085938 674.359375 89.710938 672.917969 77.433594 C 671.953125 68.042969 677.25 47.089844 662.5625 47.089844 C 651.96875 47.089844 651.488281 58.890625 651.96875 67.078125 C 652.929688 76.46875 652.691406 87.304688 653.652344 96.699219 C 654.378906 103.445312 655.339844 118.855469 658.230469 122.707031 C 664.007812 130.410156 676.046875 126.800781 676.046875 118.609375 Z M 238.738281 108.257812 C 238.738281 123.910156 250.054688 140.285156 265.949219 140.285156 C 273.410156 140.285156 285.453125 141.246094 290.511719 135.949219 C 296.054688 130.65625 293.164062 120.058594 284.972656 118.613281 L 265.949219 119.335938 C 262.578125 119.335938 259.449219 114.042969 259.449219 108.261719 C 259.449219 95.738281 273.894531 104.648438 273.894531 88.035156 C 273.894531 83.457031 268.839844 79.847656 264.984375 79.363281 C 253.1875 78.394531 238.738281 92.847656 238.738281 108.257812 Z M 167.941406 59.132812 C 167.941406 76.230469 177.332031 82.25 170.109375 115.964844 C 168.421875 124.390625 159.996094 144.378906 176.851562 144.378906 C 187.929688 144.378906 190.097656 121.984375 192.261719 109.945312 C 194.914062 93.570312 193.226562 84.175781 190.097656 68.28125 C 188.410156 60.09375 187.929688 50.460938 178.535156 50.460938 C 173 50.460938 167.941406 54.074219 167.941406 59.132812 Z M 548.421875 122.703125 C 548.421875 117.644531 546.976562 112.828125 546.253906 108.734375 C 545.289062 103.917969 544.566406 100.308594 544.566406 94.527344 C 546.972656 93.804688 552.03125 88.988281 561.183594 86.34375 C 564.316406 85.378906 567.445312 84.898438 570.09375 83.210938 C 579.246094 77.671875 578.523438 52.628906 540.472656 72.859375 C 537.34375 59.375 524.339844 61.296875 520.96875 69.246094 C 518.320312 75.027344 523.859375 101.511719 525.0625 107.53125 C 526.265625 114.277344 527.714844 127.035156 531.808594 130.410156 C 538.785156 135.707031 548.421875 130.648438 548.421875 122.703125 Z M 598.269531 88.992188 C 598.507812 84.414062 600.675781 82.25 602.363281 79.359375 C 606.457031 80.082031 609.105469 81.765625 611.035156 84.898438 C 608.144531 86.824219 602.84375 88.507812 598.269531 88.992188 Z M 575.871094 95.253906 C 575.871094 105.605469 576.59375 115.964844 583.578125 123.667969 C 595.378906 136.671875 606.9375 137.632812 621.867188 130.167969 C 631.738281 125.109375 632.21875 116.921875 627.886719 112.34375 C 619.699219 103.917969 613.195312 113.789062 605.492188 113.789062 C 602.121094 113.789062 600.675781 112.34375 599.953125 109.695312 C 607.175781 109.214844 615.605469 106.082031 620.664062 103.433594 C 635.355469 95.726562 635.59375 77.425781 623.070312 67.3125 C 597.785156 46.367188 575.871094 68.765625 575.871094 95.253906 Z M 481.953125 80.804688 C 487.976562 80.804688 489.417969 88.03125 485.808594 88.03125 C 481.714844 88.03125 480.511719 86.585938 476.175781 86.585938 C 477.382812 84.175781 478.585938 80.804688 481.953125 80.804688 Z M 455.46875 89.710938 C 455.46875 125.109375 494.957031 150.636719 517.835938 126.316406 C 524.820312 119.09375 519.039062 108.980469 510.851562 108.980469 C 504.59375 108.980469 500.980469 115.480469 497.847656 115.480469 C 493.03125 115.480469 486.289062 111.625 484.367188 108.980469 C 497.128906 108.980469 508.445312 99.828125 508.445312 88.992188 C 508.445312 78.640625 507.722656 74.785156 500.5 67.800781 C 492.074219 59.375 480.511719 57.6875 469.675781 63.226562 C 461.25 67.558594 455.46875 79.117188 455.46875 89.710938 Z M 286.902344 72.136719 C 286.902344 81.046875 296.054688 119.09375 298.464844 131.132812 C 300.390625 141.488281 302.558594 145.101562 310.988281 145.101562 C 320.378906 145.101562 320.378906 134.023438 318.933594 127.519531 L 335.550781 139.800781 C 339.167969 141.726562 342.296875 142.449219 346.390625 140.523438 C 349.28125 139.082031 351.929688 135.46875 351.929688 131.375 C 351.929688 124.148438 337 115 330.738281 110.183594 C 327.609375 107.777344 324.960938 106.089844 322.070312 104.164062 C 325.4375 99.105469 347.113281 85.617188 347.113281 77.675781 C 347.113281 68.527344 336.515625 63.46875 329.054688 70.214844 L 310.027344 86.585938 C 307.621094 75.507812 309.066406 62.503906 297.265625 62.503906 C 290.03125 62.5 286.902344 68.28125 286.902344 72.136719 Z M 90.160156 92.121094 C 90.160156 110.421875 91.601562 119.332031 106.054688 132.335938 C 115.925781 141.246094 130.375 142.691406 143.863281 142.691406 C 156.386719 142.691406 164.089844 142.210938 164.089844 130.648438 C 164.089844 113.554688 129.894531 129.6875 115.925781 113.554688 C 102.683594 98.144531 114.722656 71.171875 131.820312 71.171875 C 134.710938 71.171875 138.082031 70.691406 138.566406 73.097656 C 139.289062 76.46875 132.785156 73.097656 132.785156 86.582031 C 132.785156 90.195312 137.363281 93.804688 143.863281 93.804688 C 151.324219 93.804688 159.273438 83.207031 159.273438 75.261719 C 159.273438 66.351562 158.792969 62.496094 152.046875 56.476562 C 138.566406 44.4375 114.722656 51.421875 103.164062 63.460938 C 96.417969 70.207031 90.160156 82.007812 90.160156 92.121094 Z M 90.160156 92.121094 " fill-opacity="0.341" fill-rule="evenodd"/><path fill="#ffffff" d="M 744.199219 98.867188 C 744.199219 110.183594 738.902344 120.058594 731.921875 127.523438 C 724.699219 135.710938 716.75 139.085938 705.671875 141.25 C 691.707031 144.140625 697.964844 162.925781 726.140625 147.273438 C 746.128906 135.957031 761.78125 110.667969 755.515625 87.550781 C 754.792969 84.660156 753.109375 82.007812 749.738281 81.53125 C 740.828125 80.5625 744.199219 91.882812 744.199219 98.867188 Z M 744.199219 98.867188 " fill-opacity="1" fill-rule="evenodd"/><path fill="#ffffff" d="M 34.53125 69.246094 C 34.53125 61.296875 37.660156 55.761719 42.476562 52.148438 C 49.460938 47.089844 56.683594 47.816406 61.023438 45.886719 C 69.449219 42.035156 65.355469 25.660156 38.144531 40.589844 C 32.125 43.722656 28.996094 47.574219 26.105469 53.355469 C 23.699219 58.414062 21.289062 66.597656 22.25 73.582031 C 22.730469 77.4375 22.492188 91.402344 30.921875 88.753906 C 37.90625 86.582031 34.53125 76.953125 34.53125 69.246094 Z M 34.53125 69.246094 " fill-opacity="1" fill-rule="evenodd"/><path fill="#ffffff" d="M 82.695312 47.570312 C 84.863281 47.570312 90.882812 45.402344 90.882812 38.660156 C 90.882812 33.121094 80.046875 31.917969 77.15625 39.382812 C 75.46875 43.238281 78.121094 47.570312 82.695312 47.570312 Z M 82.695312 47.570312 " fill-opacity="1" fill-rule="evenodd"/><path fill="#ffffff" d="M 386.355469 51.183594 C 386.355469 64.910156 388.042969 82.734375 388.042969 91.160156 C 387.804688 97.179688 392.621094 127.765625 396.714844 133.0625 C 403.457031 142.449219 416.460938 136.191406 414.535156 124.875 C 414.054688 120.78125 413.089844 118.855469 412.367188 115 C 411.644531 111.628906 410.441406 108.015625 410.441406 104.886719 C 417.902344 104.164062 425.851562 102.480469 433.796875 102.480469 C 433.796875 137.398438 456.191406 126.800781 456.191406 116.925781 C 456.191406 107.777344 448.246094 72.136719 448.246094 52.632812 C 448.003906 33.609375 428.015625 37.703125 428.015625 47.816406 L 428.980469 74.300781 C 429.21875 76.953125 429.703125 77.914062 429.703125 81.523438 C 423.203125 82.25 414.535156 83.929688 408.03125 83.929688 C 408.03125 80.078125 407.550781 45.160156 406.34375 42.992188 C 402.011719 34.328125 386.355469 34.8125 386.355469 51.183594 Z M 386.355469 51.183594 " fill-opacity="1" fill-rule="evenodd"/><path fill="#ffffff" d="M 90.160156 86.34375 C 90.160156 104.640625 91.601562 113.792969 106.054688 126.796875 C 115.925781 135.707031 130.375 136.910156 143.863281 136.910156 C 156.386719 136.910156 164.089844 136.671875 164.089844 124.871094 C 164.089844 108.011719 129.894531 124.144531 115.925781 108.011719 C 102.683594 92.601562 114.722656 65.632812 131.820312 65.632812 C 134.710938 65.632812 138.082031 64.90625 138.566406 67.320312 C 139.289062 70.933594 132.785156 67.558594 132.785156 80.800781 C 132.785156 84.65625 137.363281 88.023438 143.863281 88.023438 C 151.324219 88.023438 159.273438 77.425781 159.273438 69.480469 C 159.273438 60.808594 158.792969 56.957031 152.046875 50.9375 C 138.566406 38.65625 114.722656 45.878906 103.164062 57.679688 C 96.417969 64.429688 90.160156 76.230469 90.160156 86.34375 Z M 90.160156 86.34375 " fill-opacity="1" fill-rule="evenodd"/><path fill="#ffffff" d="M 286.902344 66.355469 C 286.902344 75.265625 296.054688 113.3125 298.464844 125.355469 C 300.390625 135.949219 302.558594 139.320312 310.988281 139.320312 C 320.378906 139.320312 320.378906 128.242188 318.933594 121.738281 L 335.550781 134.019531 C 339.167969 136.1875 342.296875 136.910156 346.390625 134.742188 C 349.28125 133.300781 351.929688 129.6875 351.929688 125.832031 C 351.929688 118.371094 337 109.214844 330.738281 104.402344 C 327.609375 102.234375 324.960938 100.308594 322.070312 98.382812 C 325.4375 93.566406 347.113281 79.839844 347.113281 71.894531 C 347.113281 62.984375 336.515625 57.929688 329.054688 64.671875 L 310.027344 80.804688 C 307.621094 69.730469 309.066406 56.726562 297.265625 56.726562 C 290.03125 56.722656 286.902344 62.5 286.902344 66.355469 Z M 286.902344 66.355469 " fill-opacity="1" fill-rule="evenodd"/><path fill="#ffffff" d="M 481.953125 75.265625 C 487.976562 75.265625 489.417969 82.488281 485.808594 82.488281 C 481.714844 82.488281 480.511719 80.800781 476.175781 80.800781 C 477.382812 78.636719 478.585938 75.265625 481.953125 75.265625 Z M 455.46875 83.9375 C 455.46875 119.578125 494.957031 144.863281 517.835938 120.78125 C 524.820312 113.558594 519.039062 103.199219 510.851562 103.199219 C 504.59375 103.199219 500.980469 109.699219 497.847656 109.699219 C 493.03125 109.699219 486.289062 106.085938 484.367188 103.199219 C 497.128906 103.199219 508.445312 94.050781 508.445312 83.210938 C 508.445312 72.859375 507.722656 69.246094 500.5 62.261719 C 492.074219 53.589844 480.511719 52.148438 469.675781 57.445312 C 461.25 61.78125 455.46875 73.339844 455.46875 83.9375 Z M 455.46875 83.9375 " fill-opacity="1" fill-rule="evenodd"/><path fill="#ffffff" d="M 598.269531 83.210938 C 598.507812 78.878906 600.675781 76.710938 602.363281 73.578125 C 606.457031 74.542969 609.105469 76.230469 611.035156 79.117188 C 608.144531 81.285156 602.84375 82.972656 598.269531 83.210938 Z M 575.871094 89.710938 C 575.871094 100.066406 576.59375 110.179688 583.578125 117.886719 C 595.378906 131.128906 606.9375 131.851562 621.867188 124.386719 C 631.738281 119.328125 632.21875 111.140625 627.886719 106.566406 C 619.699219 98.378906 613.195312 108.007812 605.492188 108.007812 C 602.121094 108.007812 600.675781 106.804688 599.953125 104.15625 C 607.175781 103.429688 615.605469 100.300781 620.664062 97.65625 C 635.355469 90.191406 635.59375 71.886719 623.070312 61.535156 C 597.785156 40.832031 575.871094 63.226562 575.871094 89.710938 Z M 575.871094 89.710938 " fill-opacity="1" fill-rule="evenodd"/><path fill="#ffffff" d="M 548.421875 116.925781 C 548.421875 111.871094 546.976562 107.054688 546.253906 103.199219 C 545.289062 98.144531 544.566406 94.527344 544.566406 88.753906 C 546.972656 88.273438 552.03125 83.457031 561.183594 80.804688 C 564.316406 79.84375 567.445312 79.363281 570.09375 77.675781 C 579.246094 72.136719 578.523438 47.089844 540.472656 67.078125 C 537.34375 53.835938 524.339844 55.519531 520.96875 63.707031 C 518.320312 69.488281 523.859375 95.738281 525.0625 101.996094 C 526.265625 108.496094 527.714844 121.5 531.808594 124.632812 C 538.785156 130.171875 548.421875 124.875 548.421875 116.925781 Z M 548.421875 116.925781 " fill-opacity="1" fill-rule="evenodd"/><path fill="#ffffff" d="M 167.941406 53.589844 C 167.941406 70.6875 177.332031 76.46875 170.109375 110.421875 C 168.421875 118.847656 159.996094 138.597656 176.851562 138.597656 C 187.929688 138.597656 190.097656 116.441406 192.261719 104.164062 C 194.914062 88.03125 193.226562 78.394531 190.097656 62.746094 C 188.410156 54.320312 187.929688 44.683594 178.535156 44.683594 C 173 44.679688 167.941406 48.535156 167.941406 53.589844 Z M 167.941406 53.589844 " fill-opacity="1" fill-rule="evenodd"/><path fill="#ffffff" d="M 238.738281 102.476562 C 238.738281 118.371094 250.054688 134.503906 265.949219 134.503906 C 273.410156 134.503906 285.453125 135.46875 290.511719 130.410156 C 296.054688 124.871094 293.164062 114.515625 284.972656 113.074219 L 265.949219 113.796875 C 262.578125 113.796875 259.449219 108.5 259.449219 102.480469 C 259.449219 90.199219 273.894531 98.867188 273.894531 82.492188 C 273.894531 77.675781 268.839844 74.066406 264.984375 73.824219 C 253.1875 72.859375 238.738281 87.066406 238.738281 102.476562 Z M 238.738281 102.476562 " fill-opacity="1" fill-rule="evenodd"/><path fill="#ffffff" d="M 676.046875 112.832031 C 676.046875 100.554688 674.359375 83.9375 672.917969 71.894531 C 671.953125 62.503906 677.25 41.554688 662.5625 41.554688 C 651.96875 41.554688 651.488281 53.355469 651.96875 61.542969 C 652.929688 70.691406 652.691406 81.53125 653.652344 91.164062 C 654.378906 97.90625 655.339844 113.078125 658.230469 117.171875 C 664.007812 124.628906 676.046875 121.019531 676.046875 112.832031 Z M 676.046875 112.832031 " fill-opacity="1" fill-rule="evenodd"/><path fill="#ffffff" d="M 204.0625 95.253906 C 204.0625 106.570312 205.992188 109.460938 208.878906 120.296875 C 210.566406 127.28125 210.808594 135.46875 220.195312 135.46875 C 234.644531 135.46875 229.585938 119.332031 228.382812 114.277344 C 225.015625 101.273438 225.492188 86.34375 213.691406 86.34375 C 208.636719 86.34375 204.0625 90.195312 204.0625 95.253906 Z M 204.0625 95.253906 " fill-opacity="1" fill-rule="evenodd"/><path fill="#ffffff" d="M 202.617188 65.632812 C 202.617188 69 205.023438 73.339844 206.46875 75.265625 C 213.691406 85.378906 227.898438 77.671875 225.253906 67.558594 C 221.398438 51.183594 202.617188 53.589844 202.617188 65.632812 Z M 202.617188 65.632812 " fill-opacity="1" fill-rule="evenodd"/><path fill="#ffffff" d="M 655.339844 146.542969 C 655.339844 162.199219 678.457031 159.308594 678.457031 145.101562 C 678.457031 130.648438 655.339844 134.023438 655.339844 146.542969 Z M 655.339844 146.542969 " fill-opacity="1" fill-rule="evenodd"/><g clip-path="url(#a8cf259b15)"><g transform="matrix(1, 0, 0, 1, 249, 35)"><g clip-path="url(#7f8632e5ca)"><g clip-path="url(#4936bd9359)"><path fill="#6d4d30" d="M 0.136719 0.03125 L 437.226562 0.03125 L 437.226562 128.058594 L 0.136719 128.058594 Z M 0.136719 0.03125 " fill-opacity="1" fill-rule="nonzero"/></g></g></g></g><g clip-path="url(#6569c085df)"><g transform="matrix(1, 0, 0, 1, 74, 25)"><g clip-path="url(#fa303af534)"><g clip-path="url(#c1e9c6c473)"><path fill="#6d4d30" d="M 0.253906 0.945312 L 437.644531 0.945312 L 437.644531 133.769531 L 0.253906 133.769531 Z M 0.253906 0.945312 " fill-opacity="1" fill-rule="nonzero"/></g></g></g></g><g transform="matrix(1, 0, 0, 1, 80, 53)"><g clip-path="url(#553b6f6783)"><g fill="#000000" fill-opacity="0.4"><g transform="translate(5.719073, 104.559867)"><g><path d="M 65.28125 -74.796875 C 67.164062 -71.742188 68.457031 -68.316406 69.15625 -64.515625 C 69.863281 -60.722656 70.175781 -56.890625 70.09375 -53.015625 C 70.019531 -49.140625 69.707031 -45.519531 69.15625 -42.15625 C 68.375 -36.988281 66.769531 -32.09375 64.34375 -27.46875 C 61.914062 -22.851562 58.664062 -18.863281 54.59375 -15.5 C 50.6875 -12.289062 46.148438 -9.941406 40.984375 -8.453125 C 35.816406 -6.960938 30.765625 -7.003906 25.828125 -8.578125 C 22.546875 -9.585938 19.691406 -11.265625 17.265625 -13.609375 C 14.835938 -15.960938 12.800781 -18.644531 11.15625 -21.65625 C 9.507812 -24.675781 8.296875 -27.75 7.515625 -30.875 C 6.578125 -34.320312 6.03125 -38.296875 5.875 -42.796875 C 5.71875 -47.296875 6.03125 -51.894531 6.8125 -56.59375 C 7.59375 -61.289062 8.882812 -65.675781 10.6875 -69.75 C 12.488281 -73.820312 14.914062 -77.1875 17.96875 -79.84375 C 21.09375 -83.050781 24.847656 -85.320312 29.234375 -86.65625 C 33.617188 -87.988281 38.117188 -88.4375 42.734375 -88 C 47.359375 -87.570312 51.664062 -86.242188 55.65625 -84.015625 C 59.644531 -81.785156 62.851562 -78.710938 65.28125 -74.796875 Z M 43.921875 -29.125 C 46.578125 -31.625 48.550781 -34.535156 49.84375 -37.859375 C 51.132812 -41.191406 51.9375 -44.675781 52.25 -48.3125 C 52.5625 -51.957031 52.484375 -55.503906 52.015625 -58.953125 C 51.546875 -62.390625 50.195312 -65.203125 47.96875 -67.390625 C 45.738281 -69.585938 42.78125 -70.648438 39.09375 -70.578125 C 37.0625 -70.578125 35.085938 -70.066406 33.171875 -69.046875 C 31.253906 -68.023438 29.671875 -66.691406 28.421875 -65.046875 C 27.003906 -63.085938 25.984375 -60.738281 25.359375 -58 C 24.734375 -55.257812 24.265625 -52.71875 23.953125 -50.375 C 23.242188 -45.125 23.519531 -39.957031 24.78125 -34.875 C 25.164062 -33.382812 25.691406 -31.894531 26.359375 -30.40625 C 27.023438 -28.925781 27.984375 -27.710938 29.234375 -26.765625 C 31.273438 -25.285156 33.601562 -24.757812 36.21875 -25.1875 C 38.84375 -25.613281 41.132812 -26.648438 43.09375 -28.296875 C 43.332031 -28.535156 43.609375 -28.8125 43.921875 -29.125 Z M 43.921875 -29.125 "/></g></g></g><g fill="#000000" fill-opacity="0.4"><g transform="translate(81.806549, 104.559867)"><g><path d="M 68.6875 -66.703125 C 69.15625 -62.472656 69.191406 -57.867188 68.796875 -52.890625 C 68.410156 -47.921875 67.515625 -42.953125 66.109375 -37.984375 C 64.703125 -33.015625 62.722656 -28.394531 60.171875 -24.125 C 57.628906 -19.863281 54.5 -16.265625 50.78125 -13.328125 C 47.0625 -10.390625 42.738281 -8.488281 37.8125 -7.625 C 32.644531 -6.769531 28.238281 -7.160156 24.59375 -8.796875 C 20.957031 -10.441406 17.945312 -12.988281 15.5625 -16.4375 C 13.175781 -19.882812 11.273438 -23.835938 9.859375 -28.296875 C 8.453125 -32.753906 7.453125 -37.410156 6.859375 -42.265625 C 6.273438 -47.117188 5.960938 -51.757812 5.921875 -56.1875 C 5.890625 -60.613281 5.988281 -64.507812 6.21875 -67.875 C 6.375 -70.0625 7.097656 -71.835938 8.390625 -73.203125 C 9.679688 -74.578125 11.207031 -75.5 12.96875 -75.96875 C 14.726562 -76.4375 16.46875 -76.4375 18.1875 -75.96875 C 19.914062 -75.5 21.328125 -74.597656 22.421875 -73.265625 C 23.523438 -71.941406 24 -70.144531 23.84375 -67.875 C 23.757812 -66.695312 23.675781 -64.695312 23.59375 -61.875 C 23.519531 -59.0625 23.5625 -55.875 23.71875 -52.3125 C 23.875 -48.75 24.207031 -45.164062 24.71875 -41.5625 C 25.226562 -37.96875 25.972656 -34.757812 26.953125 -31.9375 C 27.929688 -29.125 29.238281 -27.085938 30.875 -25.828125 C 32.519531 -24.578125 34.597656 -24.539062 37.109375 -25.71875 C 40.546875 -27.363281 43.28125 -29.789062 45.3125 -33 C 47.351562 -36.207031 48.84375 -39.804688 49.78125 -43.796875 C 50.726562 -47.785156 51.28125 -51.796875 51.4375 -55.828125 C 51.59375 -59.859375 51.472656 -63.484375 51.078125 -66.703125 C 50.765625 -68.890625 51.113281 -70.664062 52.125 -72.03125 C 53.144531 -73.40625 54.492188 -74.304688 56.171875 -74.734375 C 57.859375 -75.171875 59.601562 -75.148438 61.40625 -74.671875 C 63.207031 -74.203125 64.789062 -73.300781 66.15625 -71.96875 C 67.53125 -70.644531 68.375 -68.890625 68.6875 -66.703125 Z M 68.6875 -66.703125 "/></g></g></g><g fill="#000000" fill-opacity="0.4"><g transform="translate(156.719835, 104.559867)"><g><path d="M 66.8125 -11.03125 C 68.144531 -9.15625 68.691406 -7.375 68.453125 -5.6875 C 68.222656 -4.007812 67.476562 -2.539062 66.21875 -1.28125 C 64.96875 -0.03125 63.460938 0.84375 61.703125 1.34375 C 59.941406 1.851562 58.140625 1.851562 56.296875 1.34375 C 54.460938 0.84375 52.878906 -0.304688 51.546875 -2.109375 C 48.023438 -6.960938 44.09375 -11.425781 39.75 -15.5 C 35.40625 -19.570312 30.726562 -23.25 25.71875 -26.53125 C 25.320312 -21.914062 24.945312 -17.28125 24.59375 -12.625 C 24.25 -7.96875 23.878906 -3.328125 23.484375 1.296875 C 23.328125 3.566406 22.601562 5.363281 21.3125 6.6875 C 20.019531 8.019531 18.472656 8.921875 16.671875 9.390625 C 14.867188 9.859375 13.125 9.878906 11.4375 9.453125 C 9.757812 9.023438 8.375 8.125 7.28125 6.75 C 6.1875 5.382812 5.71875 3.566406 5.875 1.296875 C 6.570312 -7.234375 7.117188 -15.921875 7.515625 -24.765625 C 7.910156 -33.617188 8.96875 -42.269531 10.6875 -50.71875 C 11.550781 -55.101562 13.15625 -59.332031 15.5 -63.40625 C 17.84375 -67.476562 20.832031 -70.84375 24.46875 -73.5 C 28.113281 -76.164062 32.363281 -77.613281 37.21875 -77.84375 C 40.582031 -78 43.769531 -77.375 46.78125 -75.96875 C 49.800781 -74.5625 52.367188 -72.601562 54.484375 -70.09375 C 56.597656 -67.59375 58.023438 -64.773438 58.765625 -61.640625 C 59.515625 -58.515625 59.335938 -55.269531 58.234375 -51.90625 C 57.140625 -48.53125 55.359375 -45.351562 52.890625 -42.375 C 50.429688 -39.40625 47.597656 -36.828125 44.390625 -34.640625 C 52.765625 -27.828125 60.238281 -19.957031 66.8125 -11.03125 Z M 35.34375 -50.140625 C 35.8125 -50.609375 36.59375 -51.332031 37.6875 -52.3125 C 38.789062 -53.289062 39.769531 -54.328125 40.625 -55.421875 C 41.488281 -56.515625 41.84375 -57.375 41.6875 -58 C 41.375 -59.644531 40.765625 -60.546875 39.859375 -60.703125 C 38.960938 -60.859375 37.945312 -60.601562 36.8125 -59.9375 C 35.675781 -59.28125 34.5625 -58.382812 33.46875 -57.25 C 32.375 -56.113281 31.429688 -55.035156 30.640625 -54.015625 C 29.859375 -52.992188 29.351562 -52.25 29.125 -51.78125 C 28.5 -49.976562 27.953125 -48.019531 27.484375 -45.90625 C 29.046875 -46.144531 30.453125 -46.632812 31.703125 -47.375 C 32.953125 -48.125 34.164062 -49.046875 35.34375 -50.140625 Z M 35.34375 -50.140625 "/></g></g></g><g fill="#000000" fill-opacity="0.4"><g transform="translate(231.046027, 104.559867)"><g/></g></g><g fill="#000000" fill-opacity="0.4"><g transform="translate(266.741386, 104.559867)"><g><path d="M 43.796875 -50.71875 C 48.179688 -47.75 51.644531 -43.875 54.1875 -39.09375 C 56.726562 -34.320312 57.726562 -29.238281 57.1875 -23.84375 C 56.632812 -19.144531 55.023438 -15.109375 52.359375 -11.734375 C 49.703125 -8.367188 46.4375 -5.75 42.5625 -3.875 C 38.6875 -2 34.578125 -0.960938 30.234375 -0.765625 C 25.890625 -0.566406 21.71875 -1.289062 17.71875 -2.9375 C 13.726562 -4.582031 10.363281 -7.242188 7.625 -10.921875 C 6.21875 -12.722656 5.628906 -14.460938 5.859375 -16.140625 C 6.097656 -17.828125 6.820312 -19.296875 8.03125 -20.546875 C 9.25 -21.796875 10.757812 -22.675781 12.5625 -23.1875 C 14.363281 -23.695312 16.179688 -23.71875 18.015625 -23.25 C 19.859375 -22.78125 21.445312 -21.644531 22.78125 -19.84375 C 23.40625 -18.976562 24.578125 -18.488281 26.296875 -18.375 C 28.023438 -18.257812 29.75 -18.335938 31.46875 -18.609375 C 33.1875 -18.878906 34.398438 -19.171875 35.109375 -19.484375 C 36.753906 -20.273438 37.988281 -21.429688 38.8125 -22.953125 C 39.632812 -24.484375 39.925781 -26.148438 39.6875 -27.953125 C 39.457031 -30.140625 38.675781 -31.9375 37.34375 -33.34375 C 36.007812 -34.757812 34.421875 -35.992188 32.578125 -37.046875 C 30.742188 -38.097656 28.882812 -39.113281 27 -40.09375 C 25.125 -41.070312 23.484375 -42.148438 22.078125 -43.328125 C 18.160156 -46.773438 15.769531 -50.515625 14.90625 -54.546875 C 14.050781 -58.578125 14.347656 -62.609375 15.796875 -66.640625 C 17.242188 -70.671875 19.492188 -74.328125 22.546875 -77.609375 C 25.597656 -80.898438 29.082031 -83.445312 33 -85.25 C 35.113281 -86.269531 37.066406 -86.539062 38.859375 -86.0625 C 40.660156 -85.59375 42.207031 -84.710938 43.5 -83.421875 C 44.789062 -82.128906 45.671875 -80.625 46.140625 -78.90625 C 46.609375 -77.1875 46.53125 -75.523438 45.90625 -73.921875 C 45.28125 -72.316406 43.953125 -71.039062 41.921875 -70.09375 C 40.585938 -69.46875 39.039062 -68.609375 37.28125 -67.515625 C 35.519531 -66.421875 34.070312 -65.109375 32.9375 -63.578125 C 31.800781 -62.054688 31.585938 -60.351562 32.296875 -58.46875 C 32.679688 -57.21875 33.597656 -56.140625 35.046875 -55.234375 C 36.492188 -54.335938 38.039062 -53.535156 39.6875 -52.828125 C 41.332031 -52.128906 42.703125 -51.425781 43.796875 -50.71875 Z M 43.796875 -50.71875 "/></g></g></g><g fill="#000000" fill-opacity="0.4"><g transform="translate(329.912796, 104.559867)"><g><path d="M 53.546875 -80.671875 C 55.734375 -80.359375 57.492188 -79.535156 58.828125 -78.203125 C 60.160156 -76.867188 61.0625 -75.300781 61.53125 -73.5 C 62 -71.707031 62 -69.945312 61.53125 -68.21875 C 61.0625 -66.5 60.160156 -65.148438 58.828125 -64.171875 C 57.492188 -63.191406 55.734375 -62.820312 53.546875 -63.0625 C 49.941406 -63.53125 46.179688 -63.878906 42.265625 -64.109375 C 41.722656 -55.578125 41.195312 -47.046875 40.6875 -38.515625 C 40.175781 -29.984375 39.644531 -21.410156 39.09375 -12.796875 C 39.019531 -10.609375 38.335938 -8.828125 37.046875 -7.453125 C 35.753906 -6.085938 34.226562 -5.171875 32.46875 -4.703125 C 30.707031 -4.234375 28.960938 -4.234375 27.234375 -4.703125 C 25.515625 -5.171875 24.109375 -6.066406 23.015625 -7.390625 C 21.921875 -8.722656 21.410156 -10.523438 21.484375 -12.796875 C 22.035156 -21.410156 22.566406 -30.003906 23.078125 -38.578125 C 23.585938 -47.148438 24.113281 -55.738281 24.65625 -64.34375 C 21.132812 -64.1875 17.691406 -63.953125 14.328125 -63.640625 C 12.054688 -63.410156 10.234375 -63.820312 8.859375 -64.875 C 7.492188 -65.925781 6.59375 -67.3125 6.15625 -69.03125 C 5.726562 -70.757812 5.75 -72.503906 6.21875 -74.265625 C 6.6875 -76.023438 7.585938 -77.570312 8.921875 -78.90625 C 10.253906 -80.238281 12.054688 -81.019531 14.328125 -81.25 C 27.398438 -82.582031 40.472656 -82.390625 53.546875 -80.671875 Z M 53.546875 -80.671875 "/></g></g></g><g fill="#000000" fill-opacity="0.4"><g transform="translate(397.663533, 104.559867)"><g><path d="M 65.28125 -71.75 C 67.164062 -68.695312 68.457031 -65.269531 69.15625 -61.46875 C 69.863281 -57.675781 70.175781 -53.84375 70.09375 -49.96875 C 70.019531 -46.09375 69.707031 -42.46875 69.15625 -39.09375 C 68.375 -33.9375 66.769531 -29.046875 64.34375 -24.421875 C 61.914062 -19.804688 58.664062 -15.816406 54.59375 -12.453125 C 50.6875 -9.234375 46.148438 -6.878906 40.984375 -5.390625 C 35.816406 -3.910156 30.765625 -3.953125 25.828125 -5.515625 C 22.546875 -6.535156 19.691406 -8.21875 17.265625 -10.5625 C 14.835938 -12.914062 12.800781 -15.597656 11.15625 -18.609375 C 9.507812 -21.617188 8.296875 -24.691406 7.515625 -27.828125 C 6.578125 -31.273438 6.03125 -35.25 5.875 -39.75 C 5.71875 -44.25 6.03125 -48.847656 6.8125 -53.546875 C 7.59375 -58.242188 8.882812 -62.625 10.6875 -66.6875 C 12.488281 -70.757812 14.914062 -74.128906 17.96875 -76.796875 C 21.09375 -80.003906 24.847656 -82.269531 29.234375 -83.59375 C 33.617188 -84.925781 38.117188 -85.378906 42.734375 -84.953125 C 47.359375 -84.523438 51.664062 -83.191406 55.65625 -80.953125 C 59.644531 -78.722656 62.851562 -75.65625 65.28125 -71.75 Z M 43.921875 -26.0625 C 46.578125 -28.570312 48.550781 -31.488281 49.84375 -34.8125 C 51.132812 -38.144531 51.9375 -41.628906 52.25 -45.265625 C 52.5625 -48.898438 52.484375 -52.441406 52.015625 -55.890625 C 51.546875 -59.335938 50.195312 -62.15625 47.96875 -64.34375 C 45.738281 -66.539062 42.78125 -67.597656 39.09375 -67.515625 C 37.0625 -67.515625 35.085938 -67.003906 33.171875 -65.984375 C 31.253906 -64.972656 29.671875 -63.644531 28.421875 -62 C 27.003906 -60.039062 25.984375 -57.691406 25.359375 -54.953125 C 24.734375 -52.210938 24.265625 -49.671875 23.953125 -47.328125 C 23.242188 -42.078125 23.519531 -36.910156 24.78125 -31.828125 C 25.164062 -30.335938 25.691406 -28.847656 26.359375 -27.359375 C 27.023438 -25.867188 27.984375 -24.65625 29.234375 -23.71875 C 31.273438 -22.226562 33.601562 -21.695312 36.21875 -22.125 C 38.84375 -22.5625 41.132812 -23.601562 43.09375 -25.25 C 43.332031 -25.476562 43.609375 -25.75 43.921875 -26.0625 Z M 43.921875 -26.0625 "/></g></g></g><g fill="#000000" fill-opacity="0.4"><g transform="translate(473.633599, 104.559867)"><g><path d="M 66.8125 -11.03125 C 68.144531 -9.15625 68.691406 -7.375 68.453125 -5.6875 C 68.222656 -4.007812 67.476562 -2.539062 66.21875 -1.28125 C 64.96875 -0.03125 63.460938 0.84375 61.703125 1.34375 C 59.941406 1.851562 58.140625 1.851562 56.296875 1.34375 C 54.460938 0.84375 52.878906 -0.304688 51.546875 -2.109375 C 48.023438 -6.960938 44.09375 -11.425781 39.75 -15.5 C 35.40625 -19.570312 30.726562 -23.25 25.71875 -26.53125 C 25.320312 -21.914062 24.945312 -17.28125 24.59375 -12.625 C 24.25 -7.96875 23.878906 -3.328125 23.484375 1.296875 C 23.328125 3.566406 22.601562 5.363281 21.3125 6.6875 C 20.019531 8.019531 18.472656 8.921875 16.671875 9.390625 C 14.867188 9.859375 13.125 9.878906 11.4375 9.453125 C 9.757812 9.023438 8.375 8.125 7.28125 6.75 C 6.1875 5.382812 5.71875 3.566406 5.875 1.296875 C 6.570312 -7.234375 7.117188 -15.921875 7.515625 -24.765625 C 7.910156 -33.617188 8.96875 -42.269531 10.6875 -50.71875 C 11.550781 -55.101562 13.15625 -59.332031 15.5 -63.40625 C 17.84375 -67.476562 20.832031 -70.84375 24.46875 -73.5 C 28.113281 -76.164062 32.363281 -77.613281 37.21875 -77.84375 C 40.582031 -78 43.769531 -77.375 46.78125 -75.96875 C 49.800781 -74.5625 52.367188 -72.601562 54.484375 -70.09375 C 56.597656 -67.59375 58.023438 -64.773438 58.765625 -61.640625 C 59.515625 -58.515625 59.335938 -55.269531 58.234375 -51.90625 C 57.140625 -48.53125 55.359375 -45.351562 52.890625 -42.375 C 50.429688 -39.40625 47.597656 -36.828125 44.390625 -34.640625 C 52.765625 -27.828125 60.238281 -19.957031 66.8125 -11.03125 Z M 35.34375 -50.140625 C 35.8125 -50.609375 36.59375 -51.332031 37.6875 -52.3125 C 38.789062 -53.289062 39.769531 -54.328125 40.625 -55.421875 C 41.488281 -56.515625 41.84375 -57.375 41.6875 -58 C 41.375 -59.644531 40.765625 -60.546875 39.859375 -60.703125 C 38.960938 -60.859375 37.945312 -60.601562 36.8125 -59.9375 C 35.675781 -59.28125 34.5625 -58.382812 33.46875 -57.25 C 32.375 -56.113281 31.429688 -55.035156 30.640625 -54.015625 C 29.859375 -52.992188 29.351562 -52.25 29.125 -51.78125 C 28.5 -49.976562 27.953125 -48.019531 27.484375 -45.90625 C 29.046875 -46.144531 30.453125 -46.632812 31.703125 -47.375 C 32.953125 -48.125 34.164062 -49.046875 35.34375 -50.140625 Z M 35.34375 -50.140625 "/></g></g></g><g fill="#000000" fill-opacity="0.4"><g transform="translate(547.959791, 104.559867)"><g><path d="M 47.4375 -80.3125 C 47.675781 -82.582031 48.476562 -84.285156 49.84375 -85.421875 C 51.21875 -86.554688 52.785156 -87.203125 54.546875 -87.359375 C 56.304688 -87.515625 58.023438 -87.203125 59.703125 -86.421875 C 61.390625 -85.640625 62.722656 -84.460938 63.703125 -82.890625 C 64.679688 -81.328125 65.015625 -79.453125 64.703125 -77.265625 C 64.078125 -72.171875 63.488281 -66.785156 62.9375 -61.109375 C 62.382812 -55.441406 61.582031 -49.75 60.53125 -44.03125 C 59.476562 -38.320312 57.953125 -32.882812 55.953125 -27.71875 C 53.953125 -22.550781 51.226562 -17.910156 47.78125 -13.796875 C 44.34375 -9.679688 39.921875 -6.375 34.515625 -3.875 C 32.484375 -2.9375 30.625 -2.738281 28.9375 -3.28125 C 27.257812 -3.832031 25.910156 -4.832031 24.890625 -6.28125 C 23.867188 -7.726562 23.257812 -9.367188 23.0625 -11.203125 C 22.875 -13.046875 23.191406 -14.804688 24.015625 -16.484375 C 24.835938 -18.171875 26.265625 -19.445312 28.296875 -20.3125 C 30.960938 -21.5625 33.132812 -23.242188 34.8125 -25.359375 C 36.5 -27.472656 37.847656 -29.820312 38.859375 -32.40625 C 35.648438 -31.3125 32.382812 -30.78125 29.0625 -30.8125 C 25.738281 -30.851562 22.46875 -31.695312 19.25 -33.34375 C 15.03125 -35.457031 11.878906 -38.429688 9.796875 -42.265625 C 7.722656 -46.109375 6.488281 -50.316406 6.09375 -54.890625 C 5.707031 -59.472656 5.925781 -64.050781 6.75 -68.625 C 7.570312 -73.207031 8.804688 -77.335938 10.453125 -81.015625 C 11.304688 -83.128906 12.554688 -84.554688 14.203125 -85.296875 C 15.847656 -86.046875 17.550781 -86.265625 19.3125 -85.953125 C 21.070312 -85.640625 22.65625 -84.894531 24.0625 -83.71875 C 25.476562 -82.539062 26.441406 -81.09375 26.953125 -79.375 C 27.460938 -77.65625 27.285156 -75.738281 26.421875 -73.625 C 25.796875 -72.289062 25.171875 -70.488281 24.546875 -68.21875 C 23.921875 -65.945312 23.46875 -63.554688 23.1875 -61.046875 C 22.914062 -58.546875 23.015625 -56.238281 23.484375 -54.125 C 23.953125 -52.019531 25.046875 -50.414062 26.765625 -49.3125 C 28.335938 -48.21875 30.039062 -47.863281 31.875 -48.25 C 33.71875 -48.644531 35.476562 -49.488281 37.15625 -50.78125 C 38.84375 -52.070312 40.351562 -53.539062 41.6875 -55.1875 C 43.019531 -56.832031 44.078125 -58.320312 44.859375 -59.65625 C 45.328125 -63.09375 45.753906 -66.535156 46.140625 -69.984375 C 46.535156 -73.429688 46.96875 -76.875 47.4375 -80.3125 Z M 47.4375 -80.3125 "/></g></g></g><g fill="#f1cc09" fill-opacity="1"><g transform="translate(0.529616, 99.370395)"><g><path d="M 65.28125 -74.796875 C 67.164062 -71.742188 68.457031 -68.316406 69.15625 -64.515625 C 69.863281 -60.722656 70.175781 -56.890625 70.09375 -53.015625 C 70.019531 -49.140625 69.707031 -45.519531 69.15625 -42.15625 C 68.375 -36.988281 66.769531 -32.09375 64.34375 -27.46875 C 61.914062 -22.851562 58.664062 -18.863281 54.59375 -15.5 C 50.6875 -12.289062 46.148438 -9.941406 40.984375 -8.453125 C 35.816406 -6.960938 30.765625 -7.003906 25.828125 -8.578125 C 22.546875 -9.585938 19.691406 -11.265625 17.265625 -13.609375 C 14.835938 -15.960938 12.800781 -18.644531 11.15625 -21.65625 C 9.507812 -24.675781 8.296875 -27.75 7.515625 -30.875 C 6.578125 -34.320312 6.03125 -38.296875 5.875 -42.796875 C 5.71875 -47.296875 6.03125 -51.894531 6.8125 -56.59375 C 7.59375 -61.289062 8.882812 -65.675781 10.6875 -69.75 C 12.488281 -73.820312 14.914062 -77.1875 17.96875 -79.84375 C 21.09375 -83.050781 24.847656 -85.320312 29.234375 -86.65625 C 33.617188 -87.988281 38.117188 -88.4375 42.734375 -88 C 47.359375 -87.570312 51.664062 -86.242188 55.65625 -84.015625 C 59.644531 -81.785156 62.851562 -78.710938 65.28125 -74.796875 Z M 43.921875 -29.125 C 46.578125 -31.625 48.550781 -34.535156 49.84375 -37.859375 C 51.132812 -41.191406 51.9375 -44.675781 52.25 -48.3125 C 52.5625 -51.957031 52.484375 -55.503906 52.015625 -58.953125 C 51.546875 -62.390625 50.195312 -65.203125 47.96875 -67.390625 C 45.738281 -69.585938 42.78125 -70.648438 39.09375 -70.578125 C 37.0625 -70.578125 35.085938 -70.066406 33.171875 -69.046875 C 31.253906 -68.023438 29.671875 -66.691406 28.421875 -65.046875 C 27.003906 -63.085938 25.984375 -60.738281 25.359375 -58 C 24.734375 -55.257812 24.265625 -52.71875 23.953125 -50.375 C 23.242188 -45.125 23.519531 -39.957031 24.78125 -34.875 C 25.164062 -33.382812 25.691406 -31.894531 26.359375 -30.40625 C 27.023438 -28.925781 27.984375 -27.710938 29.234375 -26.765625 C 31.273438 -25.285156 33.601562 -24.757812 36.21875 -25.1875 C 38.84375 -25.613281 41.132812 -26.648438 43.09375 -28.296875 C 43.332031 -28.535156 43.609375 -28.8125 43.921875 -29.125 Z M 43.921875 -29.125 "/></g></g></g><g fill="#f1cc09" fill-opacity="1"><g transform="translate(76.617092, 99.370395)"><g><path d="M 68.6875 -66.703125 C 69.15625 -62.472656 69.191406 -57.867188 68.796875 -52.890625 C 68.410156 -47.921875 67.515625 -42.953125 66.109375 -37.984375 C 64.703125 -33.015625 62.722656 -28.394531 60.171875 -24.125 C 57.628906 -19.863281 54.5 -16.265625 50.78125 -13.328125 C 47.0625 -10.390625 42.738281 -8.488281 37.8125 -7.625 C 32.644531 -6.769531 28.238281 -7.160156 24.59375 -8.796875 C 20.957031 -10.441406 17.945312 -12.988281 15.5625 -16.4375 C 13.175781 -19.882812 11.273438 -23.835938 9.859375 -28.296875 C 8.453125 -32.753906 7.453125 -37.410156 6.859375 -42.265625 C 6.273438 -47.117188 5.960938 -51.757812 5.921875 -56.1875 C 5.890625 -60.613281 5.988281 -64.507812 6.21875 -67.875 C 6.375 -70.0625 7.097656 -71.835938 8.390625 -73.203125 C 9.679688 -74.578125 11.207031 -75.5 12.96875 -75.96875 C 14.726562 -76.4375 16.46875 -76.4375 18.1875 -75.96875 C 19.914062 -75.5 21.328125 -74.597656 22.421875 -73.265625 C 23.523438 -71.941406 24 -70.144531 23.84375 -67.875 C 23.757812 -66.695312 23.675781 -64.695312 23.59375 -61.875 C 23.519531 -59.0625 23.5625 -55.875 23.71875 -52.3125 C 23.875 -48.75 24.207031 -45.164062 24.71875 -41.5625 C 25.226562 -37.96875 25.972656 -34.757812 26.953125 -31.9375 C 27.929688 -29.125 29.238281 -27.085938 30.875 -25.828125 C 32.519531 -24.578125 34.597656 -24.539062 37.109375 -25.71875 C 40.546875 -27.363281 43.28125 -29.789062 45.3125 -33 C 47.351562 -36.207031 48.84375 -39.804688 49.78125 -43.796875 C 50.726562 -47.785156 51.28125 -51.796875 51.4375 -55.828125 C 51.59375 -59.859375 51.472656 -63.484375 51.078125 -66.703125 C 50.765625 -68.890625 51.113281 -70.664062 52.125 -72.03125 C 53.144531 -73.40625 54.492188 -74.304688 56.171875 -74.734375 C 57.859375 -75.171875 59.601562 -75.148438 61.40625 -74.671875 C 63.207031 -74.203125 64.789062 -73.300781 66.15625 -71.96875 C 67.53125 -70.644531 68.375 -68.890625 68.6875 -66.703125 Z M 68.6875 -66.703125 "/></g></g></g><g fill="#f1cc09" fill-opacity="1"><g transform="translate(151.530378, 99.370395)"><g><path d="M 66.8125 -11.03125 C 68.144531 -9.15625 68.691406 -7.375 68.453125 -5.6875 C 68.222656 -4.007812 67.476562 -2.539062 66.21875 -1.28125 C 64.96875 -0.03125 63.460938 0.84375 61.703125 1.34375 C 59.941406 1.851562 58.140625 1.851562 56.296875 1.34375 C 54.460938 0.84375 52.878906 -0.304688 51.546875 -2.109375 C 48.023438 -6.960938 44.09375 -11.425781 39.75 -15.5 C 35.40625 -19.570312 30.726562 -23.25 25.71875 -26.53125 C 25.320312 -21.914062 24.945312 -17.28125 24.59375 -12.625 C 24.25 -7.96875 23.878906 -3.328125 23.484375 1.296875 C 23.328125 3.566406 22.601562 5.363281 21.3125 6.6875 C 20.019531 8.019531 18.472656 8.921875 16.671875 9.390625 C 14.867188 9.859375 13.125 9.878906 11.4375 9.453125 C 9.757812 9.023438 8.375 8.125 7.28125 6.75 C 6.1875 5.382812 5.71875 3.566406 5.875 1.296875 C 6.570312 -7.234375 7.117188 -15.921875 7.515625 -24.765625 C 7.910156 -33.617188 8.96875 -42.269531 10.6875 -50.71875 C 11.550781 -55.101562 13.15625 -59.332031 15.5 -63.40625 C 17.84375 -67.476562 20.832031 -70.84375 24.46875 -73.5 C 28.113281 -76.164062 32.363281 -77.613281 37.21875 -77.84375 C 40.582031 -78 43.769531 -77.375 46.78125 -75.96875 C 49.800781 -74.5625 52.367188 -72.601562 54.484375 -70.09375 C 56.597656 -67.59375 58.023438 -64.773438 58.765625 -61.640625 C 59.515625 -58.515625 59.335938 -55.269531 58.234375 -51.90625 C 57.140625 -48.53125 55.359375 -45.351562 52.890625 -42.375 C 50.429688 -39.40625 47.597656 -36.828125 44.390625 -34.640625 C 52.765625 -27.828125 60.238281 -19.957031 66.8125 -11.03125 Z M 35.34375 -50.140625 C 35.8125 -50.609375 36.59375 -51.332031 37.6875 -52.3125 C 38.789062 -53.289062 39.769531 -54.328125 40.625 -55.421875 C 41.488281 -56.515625 41.84375 -57.375 41.6875 -58 C 41.375 -59.644531 40.765625 -60.546875 39.859375 -60.703125 C 38.960938 -60.859375 37.945312 -60.601562 36.8125 -59.9375 C 35.675781 -59.28125 34.5625 -58.382812 33.46875 -57.25 C 32.375 -56.113281 31.429688 -55.035156 30.640625 -54.015625 C 29.859375 -52.992188 29.351562 -52.25 29.125 -51.78125 C 28.5 -49.976562 27.953125 -48.019531 27.484375 -45.90625 C 29.046875 -46.144531 30.453125 -46.632812 31.703125 -47.375 C 32.953125 -48.125 34.164062 -49.046875 35.34375 -50.140625 Z M 35.34375 -50.140625 "/></g></g></g><g fill="#f1cc09" fill-opacity="1"><g transform="translate(225.85657, 99.370395)"><g/></g></g><g fill="#f1cc09" fill-opacity="1"><g transform="translate(261.551929, 99.370395)"><g><path d="M 43.796875 -50.71875 C 48.179688 -47.75 51.644531 -43.875 54.1875 -39.09375 C 56.726562 -34.320312 57.726562 -29.238281 57.1875 -23.84375 C 56.632812 -19.144531 55.023438 -15.109375 52.359375 -11.734375 C 49.703125 -8.367188 46.4375 -5.75 42.5625 -3.875 C 38.6875 -2 34.578125 -0.960938 30.234375 -0.765625 C 25.890625 -0.566406 21.71875 -1.289062 17.71875 -2.9375 C 13.726562 -4.582031 10.363281 -7.242188 7.625 -10.921875 C 6.21875 -12.722656 5.628906 -14.460938 5.859375 -16.140625 C 6.097656 -17.828125 6.820312 -19.296875 8.03125 -20.546875 C 9.25 -21.796875 10.757812 -22.675781 12.5625 -23.1875 C 14.363281 -23.695312 16.179688 -23.71875 18.015625 -23.25 C 19.859375 -22.78125 21.445312 -21.644531 22.78125 -19.84375 C 23.40625 -18.976562 24.578125 -18.488281 26.296875 -18.375 C 28.023438 -18.257812 29.75 -18.335938 31.46875 -18.609375 C 33.1875 -18.878906 34.398438 -19.171875 35.109375 -19.484375 C 36.753906 -20.273438 37.988281 -21.429688 38.8125 -22.953125 C 39.632812 -24.484375 39.925781 -26.148438 39.6875 -27.953125 C 39.457031 -30.140625 38.675781 -31.9375 37.34375 -33.34375 C 36.007812 -34.757812 34.421875 -35.992188 32.578125 -37.046875 C 30.742188 -38.097656 28.882812 -39.113281 27 -40.09375 C 25.125 -41.070312 23.484375 -42.148438 22.078125 -43.328125 C 18.160156 -46.773438 15.769531 -50.515625 14.90625 -54.546875 C 14.050781 -58.578125 14.347656 -62.609375 15.796875 -66.640625 C 17.242188 -70.671875 19.492188 -74.328125 22.546875 -77.609375 C 25.597656 -80.898438 29.082031 -83.445312 33 -85.25 C 35.113281 -86.269531 37.066406 -86.539062 38.859375 -86.0625 C 40.660156 -85.59375 42.207031 -84.710938 43.5 -83.421875 C 44.789062 -82.128906 45.671875 -80.625 46.140625 -78.90625 C 46.609375 -77.1875 46.53125 -75.523438 45.90625 -73.921875 C 45.28125 -72.316406 43.953125 -71.039062 41.921875 -70.09375 C 40.585938 -69.46875 39.039062 -68.609375 37.28125 -67.515625 C 35.519531 -66.421875 34.070312 -65.109375 32.9375 -63.578125 C 31.800781 -62.054688 31.585938 -60.351562 32.296875 -58.46875 C 32.679688 -57.21875 33.597656 -56.140625 35.046875 -55.234375 C 36.492188 -54.335938 38.039062 -53.535156 39.6875 -52.828125 C 41.332031 -52.128906 42.703125 -51.425781 43.796875 -50.71875 Z M 43.796875 -50.71875 "/></g></g></g><g fill="#f1cc09" fill-opacity="1"><g transform="translate(324.723339, 99.370395)"><g><path d="M 53.546875 -80.671875 C 55.734375 -80.359375 57.492188 -79.535156 58.828125 -78.203125 C 60.160156 -76.867188 61.0625 -75.300781 61.53125 -73.5 C 62 -71.707031 62 -69.945312 61.53125 -68.21875 C 61.0625 -66.5 60.160156 -65.148438 58.828125 -64.171875 C 57.492188 -63.191406 55.734375 -62.820312 53.546875 -63.0625 C 49.941406 -63.53125 46.179688 -63.878906 42.265625 -64.109375 C 41.722656 -55.578125 41.195312 -47.046875 40.6875 -38.515625 C 40.175781 -29.984375 39.644531 -21.410156 39.09375 -12.796875 C 39.019531 -10.609375 38.335938 -8.828125 37.046875 -7.453125 C 35.753906 -6.085938 34.226562 -5.171875 32.46875 -4.703125 C 30.707031 -4.234375 28.960938 -4.234375 27.234375 -4.703125 C 25.515625 -5.171875 24.109375 -6.066406 23.015625 -7.390625 C 21.921875 -8.722656 21.410156 -10.523438 21.484375 -12.796875 C 22.035156 -21.410156 22.566406 -30.003906 23.078125 -38.578125 C 23.585938 -47.148438 24.113281 -55.738281 24.65625 -64.34375 C 21.132812 -64.1875 17.691406 -63.953125 14.328125 -63.640625 C 12.054688 -63.410156 10.234375 -63.820312 8.859375 -64.875 C 7.492188 -65.925781 6.59375 -67.3125 6.15625 -69.03125 C 5.726562 -70.757812 5.75 -72.503906 6.21875 -74.265625 C 6.6875 -76.023438 7.585938 -77.570312 8.921875 -78.90625 C 10.253906 -80.238281 12.054688 -81.019531 14.328125 -81.25 C 27.398438 -82.582031 40.472656 -82.390625 53.546875 -80.671875 Z M 53.546875 -80.671875 "/></g></g></g><g fill="#f1cc09" fill-opacity="1"><g transform="translate(392.474076, 99.370395)"><g><path d="M 65.28125 -71.75 C 67.164062 -68.695312 68.457031 -65.269531 69.15625 -61.46875 C 69.863281 -57.675781 70.175781 -53.84375 70.09375 -49.96875 C 70.019531 -46.09375 69.707031 -42.46875 69.15625 -39.09375 C 68.375 -33.9375 66.769531 -29.046875 64.34375 -24.421875 C 61.914062 -19.804688 58.664062 -15.816406 54.59375 -12.453125 C 50.6875 -9.234375 46.148438 -6.878906 40.984375 -5.390625 C 35.816406 -3.910156 30.765625 -3.953125 25.828125 -5.515625 C 22.546875 -6.535156 19.691406 -8.21875 17.265625 -10.5625 C 14.835938 -12.914062 12.800781 -15.597656 11.15625 -18.609375 C 9.507812 -21.617188 8.296875 -24.691406 7.515625 -27.828125 C 6.578125 -31.273438 6.03125 -35.25 5.875 -39.75 C 5.71875 -44.25 6.03125 -48.847656 6.8125 -53.546875 C 7.59375 -58.242188 8.882812 -62.625 10.6875 -66.6875 C 12.488281 -70.757812 14.914062 -74.128906 17.96875 -76.796875 C 21.09375 -80.003906 24.847656 -82.269531 29.234375 -83.59375 C 33.617188 -84.925781 38.117188 -85.378906 42.734375 -84.953125 C 47.359375 -84.523438 51.664062 -83.191406 55.65625 -80.953125 C 59.644531 -78.722656 62.851562 -75.65625 65.28125 -71.75 Z M 43.921875 -26.0625 C 46.578125 -28.570312 48.550781 -31.488281 49.84375 -34.8125 C 51.132812 -38.144531 51.9375 -41.628906 52.25 -45.265625 C 52.5625 -48.898438 52.484375 -52.441406 52.015625 -55.890625 C 51.546875 -59.335938 50.195312 -62.15625 47.96875 -64.34375 C 45.738281 -66.539062 42.78125 -67.597656 39.09375 -67.515625 C 37.0625 -67.515625 35.085938 -67.003906 33.171875 -65.984375 C 31.253906 -64.972656 29.671875 -63.644531 28.421875 -62 C 27.003906 -60.039062 25.984375 -57.691406 25.359375 -54.953125 C 24.734375 -52.210938 24.265625 -49.671875 23.953125 -47.328125 C 23.242188 -42.078125 23.519531 -36.910156 24.78125 -31.828125 C 25.164062 -30.335938 25.691406 -28.847656 26.359375 -27.359375 C 27.023438 -25.867188 27.984375 -24.65625 29.234375 -23.71875 C 31.273438 -22.226562 33.601562 -21.695312 36.21875 -22.125 C 38.84375 -22.5625 41.132812 -23.601562 43.09375 -25.25 C 43.332031 -25.476562 43.609375 -25.75 43.921875 -26.0625 Z M 43.921875 -26.0625 "/></g></g></g><g fill="#f1cc09" fill-opacity="1"><g transform="translate(468.444142, 99.370395)"><g><path d="M 66.8125 -11.03125 C 68.144531 -9.15625 68.691406 -7.375 68.453125 -5.6875 C 68.222656 -4.007812 67.476562 -2.539062 66.21875 -1.28125 C 64.96875 -0.03125 63.460938 0.84375 61.703125 1.34375 C 59.941406 1.851562 58.140625 1.851562 56.296875 1.34375 C 54.460938 0.84375 52.878906 -0.304688 51.546875 -2.109375 C 48.023438 -6.960938 44.09375 -11.425781 39.75 -15.5 C 35.40625 -19.570312 30.726562 -23.25 25.71875 -26.53125 C 25.320312 -21.914062 24.945312 -17.28125 24.59375 -12.625 C 24.25 -7.96875 23.878906 -3.328125 23.484375 1.296875 C 23.328125 3.566406 22.601562 5.363281 21.3125 6.6875 C 20.019531 8.019531 18.472656 8.921875 16.671875 9.390625 C 14.867188 9.859375 13.125 9.878906 11.4375 9.453125 C 9.757812 9.023438 8.375 8.125 7.28125 6.75 C 6.1875 5.382812 5.71875 3.566406 5.875 1.296875 C 6.570312 -7.234375 7.117188 -15.921875 7.515625 -24.765625 C 7.910156 -33.617188 8.96875 -42.269531 10.6875 -50.71875 C 11.550781 -55.101562 13.15625 -59.332031 15.5 -63.40625 C 17.84375 -67.476562 20.832031 -70.84375 24.46875 -73.5 C 28.113281 -76.164062 32.363281 -77.613281 37.21875 -77.84375 C 40.582031 -78 43.769531 -77.375 46.78125 -75.96875 C 49.800781 -74.5625 52.367188 -72.601562 54.484375 -70.09375 C 56.597656 -67.59375 58.023438 -64.773438 58.765625 -61.640625 C 59.515625 -58.515625 59.335938 -55.269531 58.234375 -51.90625 C 57.140625 -48.53125 55.359375 -45.351562 52.890625 -42.375 C 50.429688 -39.40625 47.597656 -36.828125 44.390625 -34.640625 C 52.765625 -27.828125 60.238281 -19.957031 66.8125 -11.03125 Z M 35.34375 -50.140625 C 35.8125 -50.609375 36.59375 -51.332031 37.6875 -52.3125 C 38.789062 -53.289062 39.769531 -54.328125 40.625 -55.421875 C 41.488281 -56.515625 41.84375 -57.375 41.6875 -58 C 41.375 -59.644531 40.765625 -60.546875 39.859375 -60.703125 C 38.960938 -60.859375 37.945312 -60.601562 36.8125 -59.9375 C 35.675781 -59.28125 34.5625 -58.382812 33.46875 -57.25 C 32.375 -56.113281 31.429688 -55.035156 30.640625 -54.015625 C 29.859375 -52.992188 29.351562 -52.25 29.125 -51.78125 C 28.5 -49.976562 27.953125 -48.019531 27.484375 -45.90625 C 29.046875 -46.144531 30.453125 -46.632812 31.703125 -47.375 C 32.953125 -48.125 34.164062 -49.046875 35.34375 -50.140625 Z M 35.34375 -50.140625 "/></g></g></g><g fill="#f1cc09" fill-opacity="1"><g transform="translate(542.770334, 99.370395)"><g><path d="M 47.4375 -80.3125 C 47.675781 -82.582031 48.476562 -84.285156 49.84375 -85.421875 C 51.21875 -86.554688 52.785156 -87.203125 54.546875 -87.359375 C 56.304688 -87.515625 58.023438 -87.203125 59.703125 -86.421875 C 61.390625 -85.640625 62.722656 -84.460938 63.703125 -82.890625 C 64.679688 -81.328125 65.015625 -79.453125 64.703125 -77.265625 C 64.078125 -72.171875 63.488281 -66.785156 62.9375 -61.109375 C 62.382812 -55.441406 61.582031 -49.75 60.53125 -44.03125 C 59.476562 -38.320312 57.953125 -32.882812 55.953125 -27.71875 C 53.953125 -22.550781 51.226562 -17.910156 47.78125 -13.796875 C 44.34375 -9.679688 39.921875 -6.375 34.515625 -3.875 C 32.484375 -2.9375 30.625 -2.738281 28.9375 -3.28125 C 27.257812 -3.832031 25.910156 -4.832031 24.890625 -6.28125 C 23.867188 -7.726562 23.257812 -9.367188 23.0625 -11.203125 C 22.875 -13.046875 23.191406 -14.804688 24.015625 -16.484375 C 24.835938 -18.171875 26.265625 -19.445312 28.296875 -20.3125 C 30.960938 -21.5625 33.132812 -23.242188 34.8125 -25.359375 C 36.5 -27.472656 37.847656 -29.820312 38.859375 -32.40625 C 35.648438 -31.3125 32.382812 -30.78125 29.0625 -30.8125 C 25.738281 -30.851562 22.46875 -31.695312 19.25 -33.34375 C 15.03125 -35.457031 11.878906 -38.429688 9.796875 -42.265625 C 7.722656 -46.109375 6.488281 -50.316406 6.09375 -54.890625 C 5.707031 -59.472656 5.925781 -64.050781 6.75 -68.625 C 7.570312 -73.207031 8.804688 -77.335938 10.453125 -81.015625 C 11.304688 -83.128906 12.554688 -84.554688 14.203125 -85.296875 C 15.847656 -86.046875 17.550781 -86.265625 19.3125 -85.953125 C 21.070312 -85.640625 22.65625 -84.894531 24.0625 -83.71875 C 25.476562 -82.539062 26.441406 -81.09375 26.953125 -79.375 C 27.460938 -77.65625 27.285156 -75.738281 26.421875 -73.625 C 25.796875 -72.289062 25.171875 -70.488281 24.546875 -68.21875 C 23.921875 -65.945312 23.46875 -63.554688 23.1875 -61.046875 C 22.914062 -58.546875 23.015625 -56.238281 23.484375 -54.125 C 23.953125 -52.019531 25.046875 -50.414062 26.765625 -49.3125 C 28.335938 -48.21875 30.039062 -47.863281 31.875 -48.25 C 33.71875 -48.644531 35.476562 -49.488281 37.15625 -50.78125 C 38.84375 -52.070312 40.351562 -53.539062 41.6875 -55.1875 C 43.019531 -56.832031 44.078125 -58.320312 44.859375 -59.65625 C 45.328125 -63.09375 45.753906 -66.535156 46.140625 -69.984375 C 46.535156 -73.429688 46.96875 -76.875 47.4375 -80.3125 Z M 47.4375 -80.3125 "/></g></g></g><g fill="#f1cc09" fill-opacity="1"><g transform="translate(613.462413, 99.370395)"><g/></g></g></g></g></g></g></svg>